<svg width="24" height="24" viewBox="0 0 24 24" fill="none" xmlns="http://www.w3.org/2000/svg">
<rect x="24" y="24" width="24" height="24" rx="12" transform="rotate(-180 24 24)" fill="#00224F"/>
<path fill-rule="evenodd" clip-rule="evenodd" d="M8 12C8 11.7239 8.22386 11.5 8.5 11.5H14.2929L12.1464 9.35355C11.9512 9.15829 11.9512 8.84171 12.1464 8.64645C12.3417 8.45118 12.6583 8.45118 12.8536 8.64645L15.8536 11.6464C16.0488 11.8417 16.0488 12.1583 15.8536 12.3536L12.8536 15.3536C12.6583 15.5488 12.3417 15.5488 12.1464 15.3536C11.9512 15.1583 11.9512 14.8417 12.1464 14.6464L14.2929 12.5H8.5C8.22386 12.5 8 12.2761 8 12Z" fill="white"/>
</svg>
