<svg width="20" height="20" viewBox="0 0 20 20" fill="none" xmlns="http://www.w3.org/2000/svg">
<path d="M10 20C11.3807 20 12.5 18.8807 12.5 17.5H7.5C7.5 18.8807 8.61929 20 10 20Z" fill="#00224F" fill-opacity="0.8"/>
<path d="M11.2439 1.37379C11.248 1.33307 11.25 1.29177 11.25 1.25C11.25 0.559644 10.6904 0 10 0C9.30964 0 8.75 0.559644 8.75 1.25C8.75 1.29178 8.75205 1.33308 8.75605 1.3738C5.90025 1.95056 3.75003 4.47417 3.75003 7.5C3.75003 8.87201 3.125 15 1.25 16.25H18.75C16.875 15 16.25 8.87201 16.25 7.5C16.25 4.47415 14.0998 1.95053 11.2439 1.37379Z" fill="#00224F" fill-opacity="0.8"/>
</svg>
