<svg width="20" height="20" viewBox="0 0 20 20" fill="none" xmlns="http://www.w3.org/2000/svg">
<path d="M17.5 0H2.5C1.11929 0 0 1.11929 0 2.5V17.5C0 18.8807 1.11929 20 2.5 20H17.5C18.8807 20 20 18.8807 20 17.5V2.5C20 1.11929 18.8807 0 17.5 0ZM1.25 4.82143C1.25 4.22969 1.80964 3.75 2.5 3.75H17.5C18.1904 3.75 18.75 4.22969 18.75 4.82143V17.6786C18.75 18.2703 18.1904 18.75 17.5 18.75H2.5C1.80964 18.75 1.25 18.2703 1.25 17.6786V4.82143Z" fill="#00224F" fill-opacity="0.8"/>
<path d="M8.125 8.75C8.81536 8.75 9.375 8.19036 9.375 7.5C9.375 6.80964 8.81536 6.25 8.125 6.25C7.43464 6.25 6.875 6.80964 6.875 7.5C6.875 8.19036 7.43464 8.75 8.125 8.75Z" fill="#00224F" fill-opacity="0.8"/>
<path d="M11.875 8.75C12.5654 8.75 13.125 8.19036 13.125 7.5C13.125 6.80964 12.5654 6.25 11.875 6.25C11.1846 6.25 10.625 6.80964 10.625 7.5C10.625 8.19036 11.1846 8.75 11.875 8.75Z" fill="#00224F" fill-opacity="0.8"/>
<path d="M15.625 8.75C16.3154 8.75 16.875 8.19036 16.875 7.5C16.875 6.80964 16.3154 6.25 15.625 6.25C14.9346 6.25 14.375 6.80964 14.375 7.5C14.375 8.19036 14.9346 8.75 15.625 8.75Z" fill="#00224F" fill-opacity="0.8"/>
<path d="M4.375 12.5C5.06536 12.5 5.625 11.9404 5.625 11.25C5.625 10.5596 5.06536 10 4.375 10C3.68464 10 3.125 10.5596 3.125 11.25C3.125 11.9404 3.68464 12.5 4.375 12.5Z" fill="#00224F" fill-opacity="0.8"/>
<path d="M8.125 12.5C8.81536 12.5 9.375 11.9404 9.375 11.25C9.375 10.5596 8.81536 10 8.125 10C7.43464 10 6.875 10.5596 6.875 11.25C6.875 11.9404 7.43464 12.5 8.125 12.5Z" fill="#00224F" fill-opacity="0.8"/>
<path d="M11.875 12.5C12.5654 12.5 13.125 11.9404 13.125 11.25C13.125 10.5596 12.5654 10 11.875 10C11.1846 10 10.625 10.5596 10.625 11.25C10.625 11.9404 11.1846 12.5 11.875 12.5Z" fill="#00224F" fill-opacity="0.8"/>
<path d="M15.625 12.5C16.3154 12.5 16.875 11.9404 16.875 11.25C16.875 10.5596 16.3154 10 15.625 10C14.9346 10 14.375 10.5596 14.375 11.25C14.375 11.9404 14.9346 12.5 15.625 12.5Z" fill="#00224F" fill-opacity="0.8"/>
<path d="M4.375 16.25C5.06536 16.25 5.625 15.6904 5.625 15C5.625 14.3096 5.06536 13.75 4.375 13.75C3.68464 13.75 3.125 14.3096 3.125 15C3.125 15.6904 3.68464 16.25 4.375 16.25Z" fill="#00224F" fill-opacity="0.8"/>
<path d="M8.125 16.25C8.81536 16.25 9.375 15.6904 9.375 15C9.375 14.3096 8.81536 13.75 8.125 13.75C7.43464 13.75 6.875 14.3096 6.875 15C6.875 15.6904 7.43464 16.25 8.125 16.25Z" fill="#00224F" fill-opacity="0.8"/>
<path d="M11.875 16.25C12.5654 16.25 13.125 15.6904 13.125 15C13.125 14.3096 12.5654 13.75 11.875 13.75C11.1846 13.75 10.625 14.3096 10.625 15C10.625 15.6904 11.1846 16.25 11.875 16.25Z" fill="#00224F" fill-opacity="0.8"/>
</svg>
