<svg width="20" height="20" viewBox="0 0 20 20" fill="none" xmlns="http://www.w3.org/2000/svg">
<path d="M2.5 1.25C1.80964 1.25 1.25 1.80964 1.25 2.5V12.5C1.25 13.1904 1.80964 13.75 2.5 13.75H14.4822C15.1453 13.75 15.7812 14.0134 16.25 14.4822L18.75 16.9822V2.5C18.75 1.80964 18.1904 1.25 17.5 1.25H2.5ZM17.5 0C18.8807 0 20 1.11929 20 2.5V18.4911C20 19.0479 19.3268 19.3268 18.9331 18.9331L15.3661 15.3661C15.1317 15.1317 14.8138 15 14.4822 15H2.5C1.11929 15 0 13.8807 0 12.5V2.5C0 1.11929 1.11929 0 2.5 0H17.5Z" fill="#00224F" fill-opacity="0.8"/>
<path d="M8.8322 5.95074C8.46086 5.37852 7.8163 5 7.08333 5C5.93274 5 5 5.93274 5 7.08333C5 8.23393 5.93274 9.16667 7.08333 9.16667C7.49492 9.16667 7.87864 9.04731 8.20175 8.84132C8.03743 9.32744 7.73299 9.8459 7.22948 10.3674C7.02968 10.5743 7.03546 10.9041 7.2424 11.1039C7.44933 11.3037 7.77906 11.2979 7.97885 11.0909C9.8379 9.16549 9.59608 7.07316 8.8322 5.95074Z" fill="#00224F" fill-opacity="0.8"/>
<path d="M13.8322 5.95074C13.4609 5.37852 12.8163 5 12.0833 5C10.9327 5 10 5.93274 10 7.08333C10 8.23393 10.9327 9.16667 12.0833 9.16667C12.4949 9.16667 12.8786 9.04731 13.2017 8.84132C13.0374 9.32744 12.733 9.8459 12.2295 10.3674C12.0297 10.5743 12.0355 10.9041 12.2424 11.1039C12.4493 11.3037 12.7791 11.2979 12.9789 11.0909C14.8379 9.16549 14.5961 7.07316 13.8322 5.95074Z" fill="#00224F" fill-opacity="0.8"/>
</svg>
