<svg width="20" height="20" viewBox="0 0 20 20" fill="none" xmlns="http://www.w3.org/2000/svg">
<g clip-path="url(#clip0_141_157)">
<path d="M2.5 1.25C1.80964 1.25 1.25 1.80964 1.25 2.5V12.5C1.25 13.1904 1.80964 13.75 2.5 13.75H14.4822C15.1453 13.75 15.7812 14.0134 16.25 14.4822L18.75 16.9822V2.5C18.75 1.80964 18.1904 1.25 17.5 1.25H2.5ZM17.5 0C18.8807 0 20 1.11929 20 2.5V18.4911C20 19.0479 19.3268 19.3268 18.9331 18.9331L15.3661 15.3661C15.1317 15.1317 14.8138 15 14.4822 15H2.5C1.11929 15 0 13.8807 0 12.5V2.5C0 1.11929 1.11929 0 2.5 0H17.5Z" fill="#00224F" fill-opacity="0.8"/>
<path d="M3.75 4.375C3.75 4.02982 4.02982 3.75 4.375 3.75H15.625C15.9702 3.75 16.25 4.02982 16.25 4.375C16.25 4.72018 15.9702 5 15.625 5H4.375C4.02982 5 3.75 4.72018 3.75 4.375ZM3.75 7.5C3.75 7.15482 4.02982 6.875 4.375 6.875H15.625C15.9702 6.875 16.25 7.15482 16.25 7.5C16.25 7.84518 15.9702 8.125 15.625 8.125H4.375C4.02982 8.125 3.75 7.84518 3.75 7.5ZM3.75 10.625C3.75 10.2798 4.02982 10 4.375 10H10.625C10.9702 10 11.25 10.2798 11.25 10.625C11.25 10.9702 10.9702 11.25 10.625 11.25H4.375C4.02982 11.25 3.75 10.9702 3.75 10.625Z" fill="#00224F" fill-opacity="0.8"/>
</g>
<defs>
<clipPath id="clip0_141_157">
<rect width="20" height="20" fill="white"/>
</clipPath>
</defs>
</svg>
