<svg width="20" height="20" viewBox="0 0 20 20" fill="none" xmlns="http://www.w3.org/2000/svg">
<path d="M5 13.4766C5.18477 15.5604 6.89118 17.0383 9.48884 17.2296V18.75H10.7931V17.2296C13.6299 17.0064 15.3906 15.4329 15.3906 13.1045C15.3906 11.1163 14.2059 9.9681 11.6952 9.31956L10.7931 9.08566V4.33323C12.1952 4.47145 13.1408 5.22631 13.3799 6.35328H15.2167C15.0102 4.3545 13.2929 2.9192 10.7931 2.75972V1.25H9.48884V2.79162C7.06508 3.07868 5.40215 4.63092 5.40215 6.73603C5.40215 8.55407 6.60859 9.84052 8.72802 10.3827L9.48884 10.5848V15.6242C8.05415 15.4116 7.06508 14.6248 6.82597 13.4766H5ZM9.23885 8.68165C7.93459 8.35207 7.23898 7.65036 7.23898 6.6616C7.23898 5.48147 8.11936 4.60966 9.48884 4.37576V8.74544L9.23885 8.68165ZM11.2279 11.0207C12.8364 11.4247 13.5429 12.0945 13.5429 13.2321C13.5429 14.6036 12.5104 15.5179 10.7931 15.6561V10.9143L11.2279 11.0207Z" fill="#00224F" fill-opacity="0.8"/>
</svg>
