<svg width="20" height="20" viewBox="0 0 20 20" fill="none" xmlns="http://www.w3.org/2000/svg">
<path fill-rule="evenodd" clip-rule="evenodd" d="M0 0H1.25V18.75H20V20H0V0ZM18.5208 3.89128C18.7879 4.10986 18.8273 4.50362 18.6087 4.77077L12.9837 11.6458C12.8719 11.7824 12.7075 11.8654 12.5311 11.8742C12.3548 11.883 12.1829 11.8168 12.0581 11.6919L8.82526 8.45914L4.25546 14.7426C4.05244 15.0218 3.66155 15.0835 3.38239 14.8805C3.10323 14.6774 3.04152 14.2866 3.24454 14.0074L8.24454 7.13239C8.35205 6.98457 8.51888 6.89121 8.70111 6.87691C8.88334 6.86262 9.06269 6.92881 9.19194 7.05806L12.4536 10.3197L17.6413 3.97923C17.8599 3.71207 18.2536 3.6727 18.5208 3.89128Z" fill="#00224F" fill-opacity="0.8"/>
</svg>
