<svg width="14" height="14" viewBox="0 0 14 14" fill="none" xmlns="http://www.w3.org/2000/svg">
<path d="M7.00021 0.142853C7.4736 0.142853 7.85735 0.526609 7.85735 0.999996V6.14285H13.0002C13.4736 6.14285 13.8574 6.52661 13.8574 7C13.8574 7.47338 13.4736 7.85714 13.0002 7.85714H7.85735V13C7.85735 13.4734 7.4736 13.8571 7.00021 13.8571C6.52682 13.8571 6.14307 13.4734 6.14307 13V7.85714H1.00021C0.526822 7.85714 0.143066 7.47338 0.143066 7C0.143066 6.52661 0.526822 6.14285 1.00021 6.14285H6.14307V0.999996C6.14307 0.526609 6.52682 0.142853 7.00021 0.142853Z" fill="#00224F" fill-opacity="0.5"/>
</svg>
