<svg width="20" height="20" viewBox="0 0 20 20" fill="none" xmlns="http://www.w3.org/2000/svg">
<path fill-rule="evenodd" clip-rule="evenodd" d="M13.125 1.25C13.4702 1.25 13.75 1.52982 13.75 1.875V6.875C13.75 7.22018 13.4702 7.5 13.125 7.5C12.7798 7.5 12.5 7.22018 12.5 6.875V5H1.875C1.52982 5 1.25 4.72018 1.25 4.375C1.25 4.02982 1.52982 3.75 1.875 3.75H12.5V1.875C12.5 1.52982 12.7798 1.25 13.125 1.25ZM15 4.375C15 4.02982 15.2798 3.75 15.625 3.75H18.125C18.4702 3.75 18.75 4.02982 18.75 4.375C18.75 4.72018 18.4702 5 18.125 5H15.625C15.2798 5 15 4.72018 15 4.375ZM6.875 6.875C7.22018 6.875 7.5 7.15482 7.5 7.5V9.375H18.125C18.4702 9.375 18.75 9.65482 18.75 10C18.75 10.3452 18.4702 10.625 18.125 10.625H7.5V12.5C7.5 12.8452 7.22018 13.125 6.875 13.125C6.52982 13.125 6.25 12.8452 6.25 12.5V7.5C6.25 7.15482 6.52982 6.875 6.875 6.875ZM1.25 10C1.25 9.65482 1.52982 9.375 1.875 9.375H4.375C4.72018 9.375 5 9.65482 5 10C5 10.3452 4.72018 10.625 4.375 10.625H1.875C1.52982 10.625 1.25 10.3452 1.25 10ZM13.125 12.5C13.4702 12.5 13.75 12.7798 13.75 13.125V18.125C13.75 18.4702 13.4702 18.75 13.125 18.75C12.7798 18.75 12.5 18.4702 12.5 18.125V16.25H1.875C1.52982 16.25 1.25 15.9702 1.25 15.625C1.25 15.2798 1.52982 15 1.875 15H12.5V13.125C12.5 12.7798 12.7798 12.5 13.125 12.5ZM15 15.625C15 15.2798 15.2798 15 15.625 15H18.125C18.4702 15 18.75 15.2798 18.75 15.625C18.75 15.9702 18.4702 16.25 18.125 16.25H15.625C15.2798 16.25 15 15.9702 15 15.625Z" fill="#00224F" fill-opacity="0.8"/>
</svg>
