<svg width="20" height="20" viewBox="0 0 20 20" fill="none" xmlns="http://www.w3.org/2000/svg">
<path d="M11.875 1.875C11.875 2.91053 11.0355 3.75 10 3.75C8.96447 3.75 8.125 2.91053 8.125 1.875C8.125 0.839466 8.96447 0 10 0C11.0355 0 11.875 0.839466 11.875 1.875Z" fill="#00224F" fill-opacity="0.8"/>
<path d="M7.5 6.875L1.83156 6.3227C1.49932 6.28117 1.25 5.99874 1.25 5.66391C1.25 5.29724 1.54724 5 1.91391 5H18.0861C18.4528 5 18.75 5.29724 18.75 5.66391C18.75 5.99874 18.5007 6.28117 18.1684 6.3227L12.5 6.875V11.25L13.0646 19.2751C13.0971 19.6653 12.7892 20 12.3976 20C12.0905 20 11.8227 19.791 11.7483 19.493L10.3032 12.4627C10.2243 12.1471 9.77573 12.1471 9.69683 12.4627L8.25175 19.493C8.17726 19.791 7.90954 20 7.60241 20C7.21084 20 6.90289 19.6653 6.93541 19.2751L7.5 11.25V6.875Z" fill="#00224F" fill-opacity="0.8"/>
</svg>
