<svg width="20" height="20" viewBox="0 0 20 20" fill="none" xmlns="http://www.w3.org/2000/svg">
<path d="M10 13.75C7.92893 13.75 6.25 12.0711 6.25 10C6.25 7.92893 7.92893 6.25 10 6.25C12.0711 6.25 13.75 7.92893 13.75 10C13.75 12.0711 12.0711 13.75 10 13.75ZM10 15C12.7614 15 15 12.7614 15 10C15 7.23858 12.7614 5 10 5C7.23858 5 5 7.23858 5 10C5 12.7614 7.23858 15 10 15Z" fill="#00224F" fill-opacity="0.8"/>
<path d="M10 0C10.3452 0 10.625 0.279822 10.625 0.625V3.125C10.625 3.47018 10.3452 3.75 10 3.75C9.65482 3.75 9.375 3.47018 9.375 3.125V0.625C9.375 0.279822 9.65482 0 10 0Z" fill="#00224F" fill-opacity="0.8"/>
<path d="M10 16.25C10.3452 16.25 10.625 16.5298 10.625 16.875V19.375C10.625 19.7202 10.3452 20 10 20C9.65482 20 9.375 19.7202 9.375 19.375V16.875C9.375 16.5298 9.65482 16.25 10 16.25Z" fill="#00224F" fill-opacity="0.8"/>
<path d="M20 10C20 10.3452 19.7202 10.625 19.375 10.625H16.875C16.5298 10.625 16.25 10.3452 16.25 10C16.25 9.65482 16.5298 9.375 16.875 9.375H19.375C19.7202 9.375 20 9.65482 20 10Z" fill="#00224F" fill-opacity="0.8"/>
<path d="M3.75 10C3.75 10.3452 3.47018 10.625 3.125 10.625H0.625C0.279822 10.625 -1.50882e-08 10.3452 0 10C1.50882e-08 9.65482 0.279822 9.375 0.625 9.375H3.125C3.47018 9.375 3.75 9.65482 3.75 10Z" fill="#00224F" fill-opacity="0.8"/>
<path d="M17.0711 2.92897C17.3151 3.17305 17.3151 3.56878 17.0711 3.81286L15.3033 5.58062C15.0592 5.8247 14.6635 5.8247 14.4194 5.58062C14.1753 5.33654 14.1753 4.94082 14.4194 4.69674L16.1872 2.92897C16.4313 2.68489 16.827 2.68489 17.0711 2.92897Z" fill="#00224F" fill-opacity="0.8"/>
<path d="M5.58058 14.4195C5.82466 14.6635 5.82466 15.0593 5.58058 15.3033L3.81281 17.0711C3.56874 17.3152 3.17301 17.3152 2.92893 17.0711C2.68485 16.827 2.68485 16.4313 2.92893 16.1872L4.6967 14.4195C4.94077 14.1754 5.3365 14.1754 5.58058 14.4195Z" fill="#00224F" fill-opacity="0.8"/>
<path d="M17.0711 17.0711C16.827 17.3152 16.4313 17.3152 16.1872 17.0711L14.4194 15.3034C14.1753 15.0593 14.1753 14.6636 14.4194 14.4195C14.6635 14.1754 15.0592 14.1754 15.3033 14.4195L17.0711 16.1872C17.3151 16.4313 17.3151 16.827 17.0711 17.0711Z" fill="#00224F" fill-opacity="0.8"/>
<path d="M5.58058 5.58064C5.3365 5.82471 4.94078 5.82471 4.6967 5.58064L2.92893 3.81287C2.68485 3.56879 2.68485 3.17306 2.92893 2.92899C3.17301 2.68491 3.56874 2.68491 3.81282 2.92899L5.58058 4.69675C5.82466 4.94083 5.82466 5.33656 5.58058 5.58064Z" fill="#00224F" fill-opacity="0.8"/>
</svg>
