<svg width="63" height="54" viewBox="0 0 63 54" fill="none" xmlns="http://www.w3.org/2000/svg">
<path d="M13.0112 47.25C11.58 47.25 10.3439 46.8188 9.30303 45.9563C8.3055 45.0563 7.80674 43.9875 7.80674 42.75V11.25C7.80674 10.0125 8.3055 8.9625 9.30303 8.1C10.3439 7.2 11.58 6.75 13.0112 6.75H49.4427C50.8739 6.75 52.0883 7.2 53.0858 8.1C54.1267 8.9625 54.6472 10.0125 54.6472 11.25V42.75C54.6472 43.9875 54.1267 45.0563 53.0858 45.9563C52.0883 46.8188 50.8739 47.25 49.4427 47.25H13.0112ZM13.0112 42.75H49.4427V11.25H13.0112V42.75ZM15.6135 38.25H46.8404L37.082 27L29.2753 36L23.4202 29.25L15.6135 38.25ZM13.0112 42.75V11.25V42.75Z" fill="#1D1B20"/>
</svg>
