<svg width="835" height="245" viewBox="0 0 835 245" fill="none" xmlns="http://www.w3.org/2000/svg">
<rect width="835" height="244" rx="5" fill="#FFAE00" fill-opacity="0.2"/>
<rect x="0.5" y="0.5" width="834" height="243" rx="4.5" stroke="#00224F" stroke-opacity="0.2"/>
<path fill-rule="evenodd" clip-rule="evenodd" d="M0 170.8L34.8426 158.898C69.6852 146.4 139.37 122 209.056 126.166C278.13 130.332 347.815 162.468 417.5 174.966C487.185 186.868 556.87 179.132 626.556 146.4C695.63 113.668 765.315 57.1317 800.157 28.5659L835 0V244H800.157C765.315 244 695.63 244 626.556 244C556.87 244 487.185 244 417.5 244C347.815 244 278.13 244 209.056 244C139.37 244 69.6852 244 34.8426 244H0V170.8Z" fill="#FF93C5" fill-opacity="0.5"/>
<path fill-rule="evenodd" clip-rule="evenodd" d="M0 70.7012C0 67.9398 2.23858 65.7012 5 65.7012H20.1792C39.6625 65.7012 79.325 65.7012 118.987 82.6821C159.346 99.6629 199.008 133.625 238.671 129.379C278.333 125.134 317.996 82.6821 357.658 69.9464C397.321 57.2108 437.679 74.1916 477.342 108.153C517.004 142.115 556.667 193.057 596.329 184.567C635.992 176.077 675.654 108.153 716.013 78.4369C755.675 48.7204 795.337 57.2108 814.821 61.456L831.029 64.8659C833.343 65.3527 835 67.3941 835 69.7588V239C835 241.761 832.761 244 830 244H814.821C795.337 244 755.675 244 716.013 244C675.654 244 635.992 244 596.329 244C556.667 244 517.004 244 477.342 244C437.679 244 397.321 244 357.658 244C317.996 244 278.333 244 238.671 244C199.008 244 159.346 244 118.987 244C79.325 244 39.6625 244 20.1792 244H5.00001C2.23858 244 0 241.761 0 239V70.7012Z" fill="#1EB4FF" fill-opacity="0.3"/>
<g clip-path="url(#clip0_2014_1588)">
<path d="M538.833 204.566C536.391 205.095 534.735 206.002 533.473 207.483C531.424 209.901 531.424 212.062 533.493 215.205C535.335 217.986 539.433 219.587 543.51 219.089C548.064 218.53 551.354 215.749 551.396 212.409C551.416 211.17 551.044 210.082 550.05 208.541C547.939 205.246 543.303 203.599 538.833 204.566Z" fill="#00224F"/>
<path d="M668.05 72.5317C665.138 73.1489 664.366 73.3752 662.645 74.1158C660.461 75.0621 658.167 76.6461 656.424 78.3742C652.344 82.468 650.138 87.5699 649.432 94.6467C648.968 99.152 649.123 100.098 650.292 100.242L650.844 100.304L650.976 103.698C651.064 105.57 651.329 108.327 651.594 109.849C652.145 113.079 652.167 114.087 651.748 116.474C650.689 122.419 648.991 127.727 646.829 131.779C645.064 135.091 644.623 135.688 643.586 136.099C635.931 139.185 631.63 142.6 626.645 149.574C625.74 150.85 622.718 155.519 622.718 155.643C622.718 155.684 622.431 156.178 622.1 156.713C620.578 159.14 614.358 170.496 612.174 174.878C611.688 175.845 610.74 177.737 610.034 179.095C609.35 180.453 608.446 182.201 608.049 183.004C604.651 189.69 602.181 194.215 601.629 194.75C601.034 195.347 598.894 196.89 597.901 197.445C597.659 197.589 596.82 198.062 596.026 198.494C595.232 198.947 594.151 199.544 593.6 199.832C589.607 201.889 588.857 202.239 588.504 202.239C588.063 202.239 587.489 201.251 585.658 197.198C584.423 194.462 583.695 192.94 583.475 192.549C583.364 192.385 582.416 190.348 581.357 188.044C580.298 185.74 579.35 183.703 579.239 183.539C579.041 183.189 578.688 182.448 577.055 178.889C576.482 177.634 575.754 176.091 575.423 175.454C575.114 174.816 574.849 174.199 574.849 174.096C574.849 173.664 572.952 171.936 571.96 171.483L570.901 170.969H538.474C520.65 170.969 505.914 170.907 505.716 170.846C505.407 170.743 505.363 170.167 505.363 166.567C505.363 160.848 504.966 152.989 504.657 152.002C504.194 150.562 502.363 149.636 500.995 150.171C500.311 150.438 498.105 152.331 496.186 154.326C492.37 158.256 489.59 162.144 485.995 168.5C485.333 169.694 484.671 170.722 484.539 170.804C484.407 170.887 484.054 170.969 483.745 170.969C482.84 170.969 481.032 171.874 480.281 172.697C479.289 173.726 478.936 174.425 478.759 175.659C478.627 176.626 478.936 178.581 479.333 179.095C479.399 179.198 479.642 179.733 479.862 180.247L480.237 181.193L479.245 183.95C478.274 186.624 477.612 188.702 477.017 190.821C476.862 191.377 476.487 192.734 476.201 193.804C475.318 196.972 474.436 200.716 474.149 202.485C474.083 202.917 473.928 203.267 473.818 203.267C473.487 203.267 472.936 202.629 472.936 202.239C472.936 202.012 472.781 201.539 472.627 201.169C472.45 200.799 472.031 199.832 471.723 199.05C466.803 186.933 458.994 175.659 451.516 169.838C448.428 167.431 444.634 165.291 442.229 164.592C440.818 164.18 439.406 164.756 438.413 166.135C437.994 166.711 437.972 167.06 438.016 171.689C438.038 176.421 438.435 180.494 439.185 184.156C439.847 187.344 440.156 188.743 440.663 190.615C440.972 191.747 441.303 193.043 441.391 193.516C441.501 193.969 441.678 194.565 441.788 194.853C441.898 195.121 442.163 195.861 442.34 196.478C443.266 199.42 445.671 205.859 446.443 207.484C446.553 207.711 447.149 209.048 447.788 210.447C449.531 214.335 453.391 221.823 454.825 224.148C455.046 224.477 455.597 225.403 456.06 226.205C458.553 230.443 463.141 237.17 465.943 240.667C468.259 243.568 467.355 243.383 479.576 243.383C489.304 243.383 489.745 243.362 490.649 242.971C492.039 242.354 497.576 238.425 500.444 235.997C503.069 233.776 503.422 233.652 503.797 234.804C503.973 235.421 504.966 237.684 505.738 239.248C505.914 239.639 506.51 240.338 507.039 240.832C507.966 241.655 508.01 241.757 508.01 242.868C508.01 245.028 509.311 246.448 511.76 246.88C512.995 247.106 662.38 246.983 664.3 246.757C664.939 246.695 665.491 246.427 666.175 245.851L667.145 245.049L703.896 244.987L740.625 244.905L742.279 244.432C745.809 243.403 748.412 241.696 750.132 239.268C750.992 238.055 752.051 235.668 752.559 233.714C753.132 231.554 753.154 224.21 752.581 221.473C751.809 217.729 751.478 216.31 751.213 215.405C751.059 214.89 750.772 213.923 750.595 213.245C750.397 212.566 750.132 211.599 749.978 211.085C749.845 210.57 749.647 209.83 749.559 209.439C749.382 208.739 748.125 204.193 747.441 201.827C747.264 201.21 747.022 200.367 746.934 199.976C746.845 199.585 746.647 198.926 746.514 198.536C746.382 198.145 746.095 197.26 745.897 196.581C745.191 194.113 744.286 191.191 743.448 188.558C743.272 187.982 742.985 187.056 742.831 186.501C742.676 185.925 742.433 185.184 742.323 184.855C742.213 184.505 741.926 183.683 741.728 183.004C740.625 179.404 736.919 168.974 735.727 166.135C735.551 165.682 735.264 164.983 735.11 164.592C734.757 163.687 733.742 161.321 732.683 158.934C731.735 156.815 729.551 152.66 728.691 151.364C726.529 148.175 723.529 145.357 719.161 142.497L717.242 141.222L717.33 138.65C717.418 135.153 716.911 132.294 715.477 128.632C714.97 127.295 712.72 123.365 711.352 121.39C707.271 115.486 705.197 112.174 704.095 109.829C702.837 107.093 702.396 105.468 700.918 97.9382C699.991 93.3301 699.264 90.3677 698.447 88.0842C695.227 78.8062 689.888 74.054 680.866 72.4289C677.535 71.8117 671.116 71.8734 668.05 72.5317ZM668.16 84.8338C668.16 84.9984 669.329 87.6933 670.035 89.1951C670.212 89.5242 670.542 90.2237 670.785 90.738C673.94 97.4651 676.123 100.839 678.153 102.197C678.594 102.485 679.079 102.67 679.256 102.608C679.432 102.546 680.116 101.765 680.8 100.859C683.116 97.7736 684.991 96.8273 687.087 97.6502C688.697 98.2674 689.778 99.6869 690.55 102.156C691.013 103.637 690.881 105.406 690.175 106.722C689.513 107.977 687.263 109.87 685.499 110.713C684.704 111.084 683.999 111.516 683.954 111.639C683.91 111.763 683.976 112.339 684.153 112.874C684.307 113.429 684.638 114.704 684.881 115.733C685.146 116.741 685.741 119.148 686.227 121.082C686.69 122.995 687.241 125.278 687.44 126.122C687.749 127.562 689.557 133.672 689.866 134.351C690.087 134.886 686.866 137.786 684.55 139.144C683.315 139.864 680.381 140.893 678.748 141.16C676.741 141.51 672.417 141.428 670.741 141.016C667.653 140.296 665.006 138.65 663.638 136.614C663.13 135.853 663.064 135.585 663.153 134.577C663.417 131.944 663.66 131.615 666.064 130.771C668.778 129.825 670.322 129.002 671.734 127.747L673.123 126.513L672.241 126.616C671.756 126.677 670.719 126.821 669.925 126.945C668.204 127.233 666.131 127.048 665.028 126.533C663.903 125.999 660.947 123.859 659.866 122.789C658.344 121.308 656.888 119.313 656.027 117.585C654.064 113.614 652.939 108.121 652.939 102.546V99.3988L654.329 98.5348C656.38 97.2388 659.138 95.2021 659.888 94.4204C662.954 91.1906 664.498 89.0717 666.219 85.8213L667.344 83.6818L667.741 84.1755C667.961 84.443 668.16 84.7515 668.16 84.8338ZM658.211 134.639C658.41 134.844 658.079 135.811 656.777 138.794C655.851 140.934 655.013 142.909 654.924 143.197C654.814 143.485 654.527 144.225 654.263 144.843C653.998 145.46 653.711 146.2 653.601 146.488C653.491 146.776 653.204 147.517 652.939 148.134C652.674 148.751 652.388 149.492 652.277 149.78C652.167 150.068 651.726 151.22 651.307 152.351C650.38 154.738 647.138 163.748 646.807 164.797C646.674 165.188 646.277 166.443 645.88 167.575C645.505 168.706 645.064 170.084 644.888 170.66C644.711 171.216 644.248 172.841 643.829 174.261C641.115 183.333 639.836 189.731 637.851 203.884C637.652 205.18 637.409 207.032 637.255 207.999C637.123 208.966 636.968 210.159 636.924 210.673C636.858 211.187 636.681 212.71 636.505 214.068C636.042 217.75 634.961 226.925 634.784 228.674C634.74 228.982 634.012 229.414 631.873 230.422C630.284 231.163 628.431 232.109 627.725 232.562C625.983 233.632 623.865 235.627 622.85 237.108C622.387 237.787 621.836 238.466 621.659 238.589C621.394 238.795 619.806 238.857 615.394 238.857C610.122 238.857 609.46 238.816 609.328 238.528C609.262 238.343 609.35 237.581 609.549 236.82C610.144 234.578 612.505 225.382 615.196 214.932C615.549 213.553 616.056 211.578 616.299 210.57C616.563 209.542 616.872 208.39 616.983 207.999C617.159 207.32 617.446 206.291 619.166 199.564C619.541 198.145 620.027 196.149 620.291 195.141C620.534 194.113 620.843 192.961 620.953 192.57C621.064 192.179 621.372 191.006 621.615 189.998C621.88 188.97 622.167 187.818 622.277 187.427C622.387 187.036 622.85 185.308 623.269 183.621C623.711 181.913 624.196 180.021 624.372 179.383C624.549 178.766 624.703 177.943 624.703 177.593C624.703 177.223 624.814 176.935 624.924 176.935C625.056 176.935 625.145 176.544 625.122 176.05L625.1 175.186L624.88 176.009C624.747 176.462 624.571 176.873 624.483 176.935C624.35 177.038 623.755 178.498 623.38 179.712C623.269 180.041 622.542 182.078 621.725 184.238C620.931 186.378 619.894 189.216 619.409 190.512C618.946 191.809 617.909 194.627 617.115 196.787C616.299 198.926 615.108 202.218 614.424 204.09C613.762 205.962 613.122 207.67 613.012 207.896C612.902 208.122 612.416 209.418 611.931 210.776C611.424 212.134 610.387 214.993 609.593 217.153C608.799 219.293 607.762 222.132 607.277 223.428C606.791 224.724 605.909 227.131 605.291 228.777C604.674 230.422 604.056 232.13 603.946 232.582C603.659 233.673 602.997 234.084 602.71 233.344C602.644 233.158 602.335 232.479 602.026 231.862C601.74 231.245 601.012 229.702 600.438 228.468C599.865 227.213 599.093 225.608 598.74 224.868C598.365 224.127 597.637 222.605 597.129 221.494C596.622 220.383 596.137 219.313 596.026 219.128C595.651 218.429 594.703 216.454 593.82 214.5C593.313 213.389 592.828 212.319 592.739 212.134C592.475 211.661 591.923 210.467 591.526 209.645C591.195 208.904 590.754 207.978 589.761 205.859C589.453 205.201 589.188 204.543 589.188 204.419C589.188 204.152 589.717 203.802 591.284 203.061C596.335 200.634 601.431 197.589 602.909 196.108C603.857 195.182 606.129 191.15 609.262 184.855C610.387 182.613 611.666 180.062 612.505 178.375C615.615 172.244 622.189 160.128 623.931 157.35C624.35 156.671 624.703 156.095 624.703 156.054C624.703 155.869 627.284 152.002 629.049 149.492C631.983 145.419 635.181 142.497 639.262 140.214C640.74 139.37 643.961 137.848 644.27 137.848C644.358 137.827 644.843 137.663 645.329 137.437C645.814 137.21 646.365 137.046 646.564 137.025C646.74 137.025 646.983 136.943 647.115 136.84C647.226 136.717 647.711 136.552 648.196 136.429C648.682 136.305 649.63 136.079 650.292 135.894C651.946 135.441 654.991 134.783 656.469 134.577C657.13 134.474 657.748 134.392 657.814 134.371C657.902 134.371 658.079 134.474 658.211 134.639ZM696.175 135.174C699.043 135.811 704.999 137.683 707.315 138.671C707.558 138.774 708.264 139.041 708.859 139.288C712.212 140.625 716.977 143.156 719.602 145.007C723.551 147.784 726.264 150.85 728.58 155.108C729.838 157.433 731.889 161.814 732.683 163.872C732.904 164.427 733.169 164.983 733.279 165.106C733.367 165.209 733.455 165.415 733.455 165.579C733.455 165.744 733.588 166.155 733.764 166.505C734.625 168.356 738.375 178.807 739.853 183.518C740.117 184.361 740.47 185.431 740.625 185.884C740.779 186.336 741.066 187.221 741.264 187.838C741.441 188.455 741.904 189.936 742.279 191.13C742.654 192.323 743.095 193.804 743.294 194.421C743.47 195.038 743.713 195.841 743.845 196.211C743.956 196.581 744.309 197.774 744.617 198.885C745.279 201.231 745.588 202.341 746.25 204.604C746.514 205.51 746.801 206.579 746.911 206.97C747 207.361 747.595 209.542 748.235 211.805C749.845 217.482 749.823 216.845 748.301 217.77C743.294 220.836 738.308 225.629 735.22 230.319C734.161 231.924 732.485 235.051 731.999 236.285C731.227 238.301 730.83 239.474 730.477 240.914C730.257 241.757 730.014 242.601 729.926 242.766C729.794 243.033 726.088 243.074 698.933 243.136C676.322 243.156 668.028 243.115 667.807 242.951C667.631 242.827 667.498 242.519 667.498 242.251C667.498 241.634 666.969 240.667 666.241 240.009C665.182 239.001 664.432 238.857 660.66 238.857C657.66 238.857 657.108 238.816 656.733 238.487C656.491 238.301 655.983 237.273 655.608 236.244C654.969 234.434 654.924 234.166 654.924 231.101C654.924 226.411 655.785 222.152 657.042 220.609C657.925 219.519 659.005 219.128 664.52 217.873C666.109 217.524 667.741 217.153 668.182 217.03C668.623 216.927 669.462 216.762 670.057 216.639C670.653 216.536 672.087 216.269 673.234 216.022C675.484 215.569 680.954 214.52 683.491 214.068C684.351 213.903 685.874 213.635 686.91 213.45C687.947 213.265 689.491 212.977 690.33 212.833C695.955 211.805 695.977 211.805 700.918 210.982C702.021 210.797 703.653 210.509 704.558 210.365C705.462 210.2 707.05 209.933 708.087 209.768C710.359 209.398 711.617 209.068 711.617 208.842C711.617 208.76 710.646 208.575 709.477 208.431C703.984 207.793 702.925 207.628 702.683 207.32C702.55 207.155 702.021 205.366 701.492 203.349C700.962 201.313 700.411 199.194 700.234 198.638C699.793 197.096 697.146 186.933 696.727 185.164C696.528 184.32 696.219 183.271 696.043 182.839C695.866 182.428 695.734 181.893 695.734 181.667C695.734 181.44 695.646 181.255 695.513 181.255C695.227 181.255 695.227 183.004 695.513 185.431C695.624 186.48 695.822 188.846 695.933 190.718C696.241 195.47 696.572 200.202 696.859 203.576C696.991 205.16 697.036 206.6 696.947 206.785C696.815 207.094 696.109 207.299 692.646 208.102C692.337 208.163 689.557 208.842 686.469 209.583C683.381 210.323 680.491 211.002 680.072 211.085C679.653 211.167 677.91 211.599 676.212 212.01C674.513 212.422 672.881 212.813 672.594 212.874C671.645 213.08 671.645 213.265 672.682 206.044C672.859 204.789 673.145 202.671 673.344 201.313C674.998 189.69 676.057 184.279 678.418 175.598C678.991 173.561 679.565 171.422 679.741 170.866C680.447 168.459 680.756 167.328 680.976 166.546C681.087 166.093 681.285 165.497 681.373 165.209C681.484 164.921 681.726 164.18 681.925 163.563C682.499 161.712 684.484 155.478 684.682 154.923C684.793 154.635 685.256 153.298 685.719 151.94C686.403 149.924 689.028 142.518 691.366 136.038C692.028 134.227 692.006 134.227 696.175 135.174ZM661.344 136.511C663.638 140.79 668.579 143.197 675.109 143.197C679.432 143.197 683.05 142.209 686.425 140.09C688.124 139.021 688.146 139.206 686.822 142.868C685.719 145.953 683.579 152.228 682.388 155.849C681.947 157.206 681.506 158.544 681.396 158.832C681.285 159.12 681.043 159.901 680.844 160.58C680.646 161.259 680.359 162.082 680.248 162.432C680.138 162.761 679.896 163.501 679.741 164.077C679.587 164.633 679.256 165.785 678.991 166.587C678.043 169.611 675.417 179.218 675.02 181.049C674.888 181.667 674.623 182.819 674.447 183.621C673.542 187.571 672.506 193.722 671.359 201.724C671.16 203.082 670.873 205.16 670.697 206.353C670.542 207.546 670.278 209.439 670.123 210.57C669.77 213.389 669.726 213.471 668.336 213.841C666.395 214.356 665.226 214.644 664.41 214.788C661.873 215.302 657.969 216.351 656.954 216.783C655.608 217.359 653.866 218.902 653.358 219.931C652.785 221.083 652.321 222.605 652.035 224.148C651.88 224.93 651.66 225.691 651.527 225.814C651.395 225.938 649.895 226.205 648.196 226.39C644.865 226.781 641.645 227.336 639.108 227.974C636.704 228.571 636.748 228.591 636.902 227.069C637.101 225.094 637.674 220.116 638.049 217.153C638.226 215.672 638.534 213.327 638.689 211.907C638.865 210.488 639.108 208.554 639.24 207.587C640.189 200.86 640.498 198.762 641.16 194.627C641.777 190.78 642.615 186.336 643.145 184.176C644.226 179.712 644.071 180.309 645.549 175.083C645.99 173.561 646.432 172.08 646.52 171.792C646.63 171.504 646.851 170.763 647.049 170.146C647.777 167.822 648.351 166.196 650.38 160.477C652.454 154.697 654.086 150.274 654.461 149.471C654.549 149.245 654.858 148.504 655.123 147.825C655.41 147.147 655.763 146.241 655.939 145.809C656.116 145.398 656.38 144.699 656.557 144.266C656.733 143.855 657.175 142.785 657.55 141.901C657.925 141.037 658.542 139.597 658.917 138.712C660.042 136.099 660.439 135.359 660.66 135.482C660.77 135.544 661.079 135.997 661.344 136.511ZM499.517 160.662C499.87 161.053 499.848 161.156 498.899 163.399C497.951 165.62 497.311 167.307 495.988 171.175C495.326 173.088 495.149 173.664 494.113 177.038C493.738 178.272 493.274 179.753 493.076 180.329C492.679 181.543 492.458 182.695 492.635 182.695C492.833 182.695 497.245 180.206 497.686 179.877C497.885 179.692 498.238 179.63 498.48 179.692C498.966 179.836 499.539 180.905 499.297 181.234C499.186 181.44 495.37 183.641 492.899 184.958C491.377 185.781 491.466 185.616 490.473 189.175C490.318 189.731 490.032 190.759 489.811 191.438C489.613 192.117 489.105 193.927 488.686 195.45C488.245 196.972 487.605 199.297 487.23 200.593C486.877 201.889 486.48 203.349 486.37 203.843C486.26 204.337 486.127 204.81 486.061 204.913C485.995 205.016 485.862 205.489 485.752 205.983C485.642 206.476 485.179 208.204 484.737 209.85C483.37 214.746 483.282 215.199 483.723 215.199C483.921 215.199 484.186 215.117 484.296 215.014C484.517 214.829 486.789 213.697 489.811 212.237L491.355 211.496L491.863 212.01C492.127 212.319 492.348 212.689 492.348 212.833C492.348 213.101 490.826 214.17 490.473 214.17C490.407 214.17 489.502 214.623 488.443 215.178C487.363 215.713 485.686 216.557 484.671 217.05C483.679 217.544 482.774 218.038 482.664 218.161C482.443 218.408 481.208 222.996 478.34 234.228C477.921 235.915 477.436 237.828 477.259 238.445C477.105 239.063 476.84 240.112 476.686 240.77C476.355 242.128 476.068 242.416 475.274 242.231C474.414 242.046 474.215 241.531 474.568 240.379C474.723 239.824 475.031 238.672 475.23 237.828C475.958 234.928 476.112 234.31 478.34 225.588C478.759 223.88 479.201 222.173 479.333 221.782C479.664 220.589 480.017 219.252 480.215 218.388C480.326 217.935 481.362 214.047 482.554 209.747C483.723 205.448 484.715 201.642 484.782 201.313C484.848 200.881 484.495 199.852 483.524 197.713C482.09 194.545 482.002 194.359 481.407 193.105C481.032 192.323 481.032 192.302 481.517 191.932C482.112 191.479 482.708 191.438 483.039 191.809C483.348 192.138 484.826 195.326 485.112 196.211C485.399 197.198 486.105 197.137 486.304 196.108C486.37 195.697 486.568 194.935 486.723 194.421C486.987 193.557 487.142 193.043 488.024 189.998C488.201 189.319 488.664 187.735 489.039 186.501C489.392 185.246 489.855 183.683 490.054 183.004C490.627 181.008 490.826 180.412 492.701 174.466C494.333 169.282 496.363 163.707 497.488 161.238C497.863 160.436 498.039 160.272 498.524 160.272C498.855 160.272 499.297 160.457 499.517 160.662ZM443.354 166.896C449.84 169.838 456.612 176.297 462.237 184.958C463.561 186.974 466.715 192.652 467.619 194.627C467.906 195.244 468.281 196.026 468.436 196.376C470.134 199.914 472.936 207.382 472.936 208.328C472.936 208.657 472.803 209.706 472.627 210.673C472.296 212.442 471.789 215.898 471.392 219.108C471.259 220.095 471.039 220.98 470.84 221.144C470.575 221.412 470.509 221.412 470.443 221.144C469.914 219.457 469.34 217.688 469.164 217.297C468.855 216.577 468.921 216.125 469.495 214.52C471.502 208.883 471.656 208.328 471.237 208.04C471.017 207.896 470.597 207.793 470.289 207.834C469.825 207.896 469.671 208.163 468.921 210.241C468.458 211.537 468.039 212.648 467.972 212.71C467.708 212.936 467.642 212.792 465.325 206.867C463.516 202.28 461.178 196.684 460.583 195.635C460.472 195.45 459.987 194.38 459.48 193.269C456.722 187.262 450.479 176.976 449.553 176.956C449.134 176.935 448.229 177.49 448.229 177.758C448.229 177.861 448.913 178.91 449.752 180.062C451.472 182.448 452.906 184.814 455.09 188.867C457.935 194.154 458.663 195.861 458.09 195.861C457.825 195.861 456.105 195.532 452.31 194.73C451.053 194.462 450.965 194.462 450.612 194.874C449.928 195.594 450.193 196.129 451.318 196.355C451.627 196.417 452.774 196.664 453.855 196.89C454.957 197.116 456.59 197.445 457.494 197.651C459.259 198.021 459.833 198.33 460.053 199.029C460.119 199.256 460.362 199.832 460.583 200.284C460.803 200.737 461.73 203.041 462.678 205.427C463.605 207.793 464.465 209.933 464.575 210.159C464.862 210.797 467.487 218.223 468.612 221.679C469.186 223.366 469.781 225.197 469.98 225.711C470.156 226.246 470.377 227.192 470.443 227.83C470.597 229.27 470.311 229.414 468.7 228.715C467.156 228.036 465.811 227.522 465.767 227.583C465.127 228.468 464.994 228.694 464.994 228.879C464.994 229.003 465.722 229.414 466.605 229.764C467.465 230.134 468.634 230.649 469.186 230.895L470.178 231.369L470.112 236.388C470.09 239.145 470.024 241.428 469.958 241.49C469.693 241.757 468.502 240.976 467.84 240.132C466.252 238.075 464.774 236.038 462.171 232.315C461.266 230.998 458.156 226.102 458.156 225.999C458.156 225.938 457.715 225.197 457.163 224.354C456.259 222.934 452.156 215.281 450.81 212.504C448.847 208.451 446.774 203.493 445.141 198.844C444.523 197.116 443.575 194.154 443.068 192.364C440.994 185.061 440.09 179.301 439.913 172.389L439.781 167.307L440.376 166.752C441.06 166.114 441.656 166.135 443.354 166.896ZM571.276 173.211C572.291 173.705 572.82 174.446 573.967 176.914C575.07 179.26 575.644 180.473 576.173 181.564C576.394 182.016 577.144 183.58 577.85 185.061C581.445 192.775 582.107 194.195 582.526 195.038C583.872 197.795 584.335 198.782 584.335 198.844C584.335 198.906 584.688 199.667 585.129 200.531C585.967 202.28 586.122 202.588 586.629 203.679C586.806 204.069 587.225 204.954 587.534 205.633C587.864 206.312 588.46 207.567 588.857 208.41C590.181 211.29 590.534 212.01 590.71 212.339C590.82 212.504 591.614 214.212 592.497 216.125C593.379 218.038 594.173 219.745 594.262 219.91C594.615 220.568 595.365 222.132 596.092 223.736C596.512 224.642 597.129 225.938 597.438 226.616C598.497 228.797 598.784 229.414 600.571 233.261C601.938 236.162 602.137 237.581 601.321 238.404L600.857 238.857H556.231C510.679 238.857 510.701 238.857 509.753 239.597C509.576 239.762 509.245 239.885 509.047 239.885C508.539 239.885 507.503 238.61 506.929 237.252C506.642 236.614 506.091 235.318 505.672 234.393C505.253 233.467 504.922 232.521 504.922 232.294C504.922 232.068 505.628 231.163 506.488 230.278C509.576 227.11 514.209 221.021 516.547 217.05C518.245 214.212 520.716 209.315 521.245 207.793C521.356 207.505 521.643 206.764 521.907 206.147C523.231 202.979 524.554 198.227 524.554 196.622C524.554 195.594 524.444 195.265 523.981 194.668C523.297 193.845 522.26 193.393 521.091 193.393C519.9 193.393 515.995 195.285 512.312 197.61C510.503 198.762 509.466 199.441 509.334 199.564C509.267 199.626 508.473 200.222 507.569 200.86C505.65 202.259 502.892 204.563 500.444 206.806C499.495 207.69 498.569 208.41 498.414 208.41C498.017 208.41 497.995 208.513 498.502 207.052C498.723 206.394 499.12 205.139 499.385 204.296C499.649 203.452 499.958 202.465 500.069 202.136C500.223 201.621 501.326 197.466 502.076 194.524C503.289 189.731 504.657 180.761 505.054 175.186C505.12 174.158 505.208 173.211 505.275 173.067C505.341 172.882 512.047 172.821 537.9 172.821C569.643 172.821 570.482 172.821 571.276 173.211ZM483.524 173.211C483.524 173.314 483.215 174.075 482.84 174.898C481.274 178.375 481.318 178.334 480.855 177.532C480.48 176.873 480.723 175.207 481.318 174.384C482.046 173.417 483.524 172.615 483.524 173.211ZM522.128 195.45C522.988 195.882 522.834 197.281 521.466 201.724C519.834 206.991 516.26 214.356 513.194 218.799C512.797 219.355 512.135 220.342 511.694 220.959C507.547 226.966 500.62 233.899 494.355 238.322C489.679 241.613 490.01 241.511 486.061 241.531C484.252 241.552 482.642 241.552 482.487 241.552C482.245 241.531 482.355 240.708 482.642 240.503C482.708 240.441 483.193 239.803 483.723 239.063C485.333 236.8 488.664 232.459 489.26 231.862L489.833 231.286L492.899 231.327C494.598 231.369 496.164 231.307 496.385 231.204C496.87 230.978 496.892 229.887 496.407 229.723C496.208 229.661 495.083 229.599 493.87 229.599C492.105 229.599 491.642 229.538 491.554 229.291C491.399 228.941 494.157 225.423 497.819 221.268C498.017 221.041 498.591 220.383 499.076 219.828C500.554 218.079 505.23 213.059 505.672 212.71C506.069 212.401 507.591 212.113 510.966 211.681C512.488 211.496 512.863 211.29 512.863 210.632C512.863 209.891 512.334 209.706 510.834 209.891C510.061 209.974 509.267 210.118 509.047 210.179C507.833 210.529 509.598 208.678 513.834 205.078C514.517 204.501 515.069 203.946 515.069 203.823C515.069 203.473 514.363 202.856 513.966 202.856C513.459 202.856 508.473 207.155 505.804 209.871C502.385 213.368 502.164 213.594 500.951 214.89C499.12 216.865 498.922 217.05 498.723 217.05C498.458 217.05 498.458 216.186 498.723 215.549C498.988 214.911 498.392 214.314 497.598 214.417C497.047 214.479 496.892 214.952 496.252 218.593L495.944 220.445L490.892 226.74C485.708 233.179 484.098 235.257 481.318 239.104C480.436 240.338 479.576 241.325 479.399 241.325C478.34 241.325 477.789 240.215 478.23 238.96C478.384 238.548 478.914 237.499 479.443 236.635C479.951 235.771 480.657 234.578 480.987 234.022C484.561 227.995 491.51 218.676 495.657 214.335C495.833 214.15 496.429 213.491 496.98 212.874C498.502 211.126 505.01 205.18 507.348 203.349C511.495 200.14 514.407 198.268 518.488 196.232C520.473 195.265 521.356 195.059 522.128 195.45ZM650.888 228.118C651.042 228.201 651.307 229.209 651.483 230.319C651.858 232.541 653.38 237.273 653.888 237.746C654.174 238.013 654.042 238.61 653.689 238.733C653.049 238.96 625.145 238.877 624.681 238.651C624.108 238.363 624.372 237.911 626.115 236.224C629.512 232.932 636.042 230.155 643.343 228.9C648.285 228.036 650.402 227.83 650.888 228.118Z" fill="#00224F"/>
</g>
<path d="M122.32 173L120.645 168.242H114.094L112.418 173H109.453L115.828 155.797H118.945L125.309 173H122.32ZM119.918 165.828L118.289 161.141C118.227 160.938 118.137 160.652 118.02 160.285C117.902 159.91 117.785 159.531 117.668 159.148C117.551 158.758 117.453 158.43 117.375 158.164C117.297 158.484 117.199 158.844 117.082 159.242C116.973 159.633 116.863 160 116.754 160.344C116.652 160.688 116.574 160.953 116.52 161.141L114.879 165.828H119.918ZM132.516 173.234C131.289 173.234 130.227 172.996 129.328 172.52C128.43 172.043 127.738 171.312 127.254 170.328C126.77 169.344 126.527 168.094 126.527 166.578C126.527 165 126.793 163.711 127.324 162.711C127.855 161.711 128.59 160.973 129.527 160.496C130.473 160.02 131.555 159.781 132.773 159.781C133.547 159.781 134.246 159.859 134.871 160.016C135.504 160.164 136.039 160.348 136.477 160.566L135.656 162.77C135.18 162.574 134.691 162.41 134.191 162.277C133.691 162.145 133.211 162.078 132.75 162.078C131.992 162.078 131.359 162.246 130.852 162.582C130.352 162.918 129.977 163.418 129.727 164.082C129.484 164.746 129.363 165.57 129.363 166.555C129.363 167.508 129.488 168.312 129.738 168.969C129.988 169.617 130.359 170.109 130.852 170.445C131.344 170.773 131.949 170.938 132.668 170.938C133.379 170.938 134.016 170.852 134.578 170.68C135.141 170.508 135.672 170.285 136.172 170.012V172.402C135.68 172.684 135.152 172.891 134.59 173.023C134.027 173.164 133.336 173.234 132.516 173.234ZM144.387 159.781C145.543 159.781 146.535 160.02 147.363 160.496C148.191 160.973 148.828 161.648 149.273 162.523C149.719 163.398 149.941 164.445 149.941 165.664V167.141H141.281C141.312 168.398 141.648 169.367 142.289 170.047C142.938 170.727 143.844 171.066 145.008 171.066C145.836 171.066 146.578 170.988 147.234 170.832C147.898 170.668 148.582 170.43 149.285 170.117V172.355C148.637 172.66 147.977 172.883 147.305 173.023C146.633 173.164 145.828 173.234 144.891 173.234C143.617 173.234 142.496 172.988 141.527 172.496C140.566 171.996 139.812 171.254 139.266 170.27C138.727 169.285 138.457 168.062 138.457 166.602C138.457 165.148 138.703 163.914 139.195 162.898C139.688 161.883 140.379 161.109 141.27 160.578C142.16 160.047 143.199 159.781 144.387 159.781ZM144.387 161.855C143.52 161.855 142.816 162.137 142.277 162.699C141.746 163.262 141.434 164.086 141.34 165.172H147.246C147.238 164.523 147.129 163.949 146.918 163.449C146.715 162.949 146.402 162.559 145.98 162.277C145.566 161.996 145.035 161.855 144.387 161.855ZM161.766 169.297C161.766 170.148 161.559 170.867 161.145 171.453C160.73 172.039 160.125 172.484 159.328 172.789C158.539 173.086 157.57 173.234 156.422 173.234C155.516 173.234 154.734 173.168 154.078 173.035C153.43 172.91 152.816 172.715 152.238 172.449V170.07C152.855 170.359 153.547 170.609 154.312 170.82C155.086 171.031 155.816 171.137 156.504 171.137C157.41 171.137 158.062 170.996 158.461 170.715C158.859 170.426 159.059 170.043 159.059 169.566C159.059 169.285 158.977 169.035 158.812 168.816C158.656 168.59 158.359 168.359 157.922 168.125C157.492 167.883 156.859 167.594 156.023 167.258C155.203 166.93 154.512 166.602 153.949 166.273C153.387 165.945 152.961 165.551 152.672 165.09C152.383 164.621 152.238 164.023 152.238 163.297C152.238 162.148 152.691 161.277 153.598 160.684C154.512 160.082 155.719 159.781 157.219 159.781C158.016 159.781 158.766 159.863 159.469 160.027C160.18 160.184 160.875 160.414 161.555 160.719L160.688 162.793C160.102 162.535 159.512 162.324 158.918 162.16C158.332 161.988 157.734 161.902 157.125 161.902C156.414 161.902 155.871 162.012 155.496 162.23C155.129 162.449 154.945 162.762 154.945 163.168C154.945 163.473 155.035 163.73 155.215 163.941C155.395 164.152 155.703 164.363 156.141 164.574C156.586 164.785 157.203 165.047 157.992 165.359C158.766 165.656 159.434 165.969 159.996 166.297C160.566 166.617 161.004 167.012 161.309 167.48C161.613 167.949 161.766 168.555 161.766 169.297ZM173.461 169.297C173.461 170.148 173.254 170.867 172.84 171.453C172.426 172.039 171.82 172.484 171.023 172.789C170.234 173.086 169.266 173.234 168.117 173.234C167.211 173.234 166.43 173.168 165.773 173.035C165.125 172.91 164.512 172.715 163.934 172.449V170.07C164.551 170.359 165.242 170.609 166.008 170.82C166.781 171.031 167.512 171.137 168.199 171.137C169.105 171.137 169.758 170.996 170.156 170.715C170.555 170.426 170.754 170.043 170.754 169.566C170.754 169.285 170.672 169.035 170.508 168.816C170.352 168.59 170.055 168.359 169.617 168.125C169.188 167.883 168.555 167.594 167.719 167.258C166.898 166.93 166.207 166.602 165.645 166.273C165.082 165.945 164.656 165.551 164.367 165.09C164.078 164.621 163.934 164.023 163.934 163.297C163.934 162.148 164.387 161.277 165.293 160.684C166.207 160.082 167.414 159.781 168.914 159.781C169.711 159.781 170.461 159.863 171.164 160.027C171.875 160.184 172.57 160.414 173.25 160.719L172.383 162.793C171.797 162.535 171.207 162.324 170.613 162.16C170.027 161.988 169.43 161.902 168.82 161.902C168.109 161.902 167.566 162.012 167.191 162.23C166.824 162.449 166.641 162.762 166.641 163.168C166.641 163.473 166.73 163.73 166.91 163.941C167.09 164.152 167.398 164.363 167.836 164.574C168.281 164.785 168.898 165.047 169.688 165.359C170.461 165.656 171.129 165.969 171.691 166.297C172.262 166.617 172.699 167.012 173.004 167.48C173.309 167.949 173.461 168.555 173.461 169.297ZM187.922 166.484C187.922 167.562 187.781 168.52 187.5 169.355C187.219 170.191 186.809 170.898 186.27 171.477C185.73 172.047 185.082 172.484 184.324 172.789C183.566 173.086 182.711 173.234 181.758 173.234C180.867 173.234 180.051 173.086 179.309 172.789C178.566 172.484 177.922 172.047 177.375 171.477C176.836 170.898 176.418 170.191 176.121 169.355C175.824 168.52 175.676 167.562 175.676 166.484C175.676 165.055 175.922 163.844 176.414 162.852C176.914 161.852 177.625 161.09 178.547 160.566C179.469 160.043 180.566 159.781 181.84 159.781C183.035 159.781 184.09 160.043 185.004 160.566C185.918 161.09 186.633 161.852 187.148 162.852C187.664 163.852 187.922 165.062 187.922 166.484ZM178.512 166.484C178.512 167.43 178.625 168.238 178.852 168.91C179.086 169.582 179.445 170.098 179.93 170.457C180.414 170.809 181.039 170.984 181.805 170.984C182.57 170.984 183.195 170.809 183.68 170.457C184.164 170.098 184.52 169.582 184.746 168.91C184.973 168.238 185.086 167.43 185.086 166.484C185.086 165.539 184.973 164.738 184.746 164.082C184.52 163.418 184.164 162.914 183.68 162.57C183.195 162.219 182.566 162.043 181.793 162.043C180.652 162.043 179.82 162.426 179.297 163.191C178.773 163.957 178.512 165.055 178.512 166.484ZM199.805 169.297C199.805 170.148 199.598 170.867 199.184 171.453C198.77 172.039 198.164 172.484 197.367 172.789C196.578 173.086 195.609 173.234 194.461 173.234C193.555 173.234 192.773 173.168 192.117 173.035C191.469 172.91 190.855 172.715 190.277 172.449V170.07C190.895 170.359 191.586 170.609 192.352 170.82C193.125 171.031 193.855 171.137 194.543 171.137C195.449 171.137 196.102 170.996 196.5 170.715C196.898 170.426 197.098 170.043 197.098 169.566C197.098 169.285 197.016 169.035 196.852 168.816C196.695 168.59 196.398 168.359 195.961 168.125C195.531 167.883 194.898 167.594 194.062 167.258C193.242 166.93 192.551 166.602 191.988 166.273C191.426 165.945 191 165.551 190.711 165.09C190.422 164.621 190.277 164.023 190.277 163.297C190.277 162.148 190.73 161.277 191.637 160.684C192.551 160.082 193.758 159.781 195.258 159.781C196.055 159.781 196.805 159.863 197.508 160.027C198.219 160.184 198.914 160.414 199.594 160.719L198.727 162.793C198.141 162.535 197.551 162.324 196.957 162.16C196.371 161.988 195.773 161.902 195.164 161.902C194.453 161.902 193.91 162.012 193.535 162.23C193.168 162.449 192.984 162.762 192.984 163.168C192.984 163.473 193.074 163.73 193.254 163.941C193.434 164.152 193.742 164.363 194.18 164.574C194.625 164.785 195.242 165.047 196.031 165.359C196.805 165.656 197.473 165.969 198.035 166.297C198.605 166.617 199.043 167.012 199.348 167.48C199.652 167.949 199.805 168.555 199.805 169.297ZM215.777 159.781C217.238 159.781 218.375 160.16 219.188 160.918C220.008 161.668 220.418 162.875 220.418 164.539V173H217.664V165.055C217.664 164.047 217.457 163.293 217.043 162.793C216.629 162.285 215.988 162.031 215.121 162.031C213.863 162.031 212.988 162.418 212.496 163.191C212.012 163.965 211.77 165.086 211.77 166.555V173H209.016V160.027H211.16L211.547 161.785H211.699C211.98 161.332 212.328 160.961 212.742 160.672C213.164 160.375 213.633 160.152 214.148 160.004C214.672 159.855 215.215 159.781 215.777 159.781ZM235.758 166.484C235.758 167.562 235.617 168.52 235.336 169.355C235.055 170.191 234.645 170.898 234.105 171.477C233.566 172.047 232.918 172.484 232.16 172.789C231.402 173.086 230.547 173.234 229.594 173.234C228.703 173.234 227.887 173.086 227.145 172.789C226.402 172.484 225.758 172.047 225.211 171.477C224.672 170.898 224.254 170.191 223.957 169.355C223.66 168.52 223.512 167.562 223.512 166.484C223.512 165.055 223.758 163.844 224.25 162.852C224.75 161.852 225.461 161.09 226.383 160.566C227.305 160.043 228.402 159.781 229.676 159.781C230.871 159.781 231.926 160.043 232.84 160.566C233.754 161.09 234.469 161.852 234.984 162.852C235.5 163.852 235.758 165.062 235.758 166.484ZM226.348 166.484C226.348 167.43 226.461 168.238 226.688 168.91C226.922 169.582 227.281 170.098 227.766 170.457C228.25 170.809 228.875 170.984 229.641 170.984C230.406 170.984 231.031 170.809 231.516 170.457C232 170.098 232.355 169.582 232.582 168.91C232.809 168.238 232.922 167.43 232.922 166.484C232.922 165.539 232.809 164.738 232.582 164.082C232.355 163.418 232 162.914 231.516 162.57C231.031 162.219 230.402 162.043 229.629 162.043C228.488 162.043 227.656 162.426 227.133 163.191C226.609 163.957 226.348 165.055 226.348 166.484ZM256.465 160.027V173H254.297L253.922 171.254H253.77C253.496 171.699 253.148 172.07 252.727 172.367C252.305 172.656 251.836 172.871 251.32 173.012C250.805 173.16 250.262 173.234 249.691 173.234C248.715 173.234 247.879 173.07 247.184 172.742C246.496 172.406 245.969 171.891 245.602 171.195C245.234 170.5 245.051 169.602 245.051 168.5V160.027H247.816V167.984C247.816 168.992 248.02 169.746 248.426 170.246C248.84 170.746 249.48 170.996 250.348 170.996C251.184 170.996 251.848 170.824 252.34 170.48C252.832 170.137 253.18 169.629 253.383 168.957C253.594 168.285 253.699 167.461 253.699 166.484V160.027H256.465ZM254.824 154.613V154.848C254.637 155.074 254.383 155.348 254.062 155.668C253.742 155.98 253.395 156.312 253.02 156.664C252.645 157.008 252.273 157.34 251.906 157.66C251.539 157.973 251.207 158.238 250.91 158.457H249.07V158.152C249.328 157.855 249.613 157.5 249.926 157.086C250.246 156.672 250.559 156.246 250.863 155.809C251.176 155.371 251.438 154.973 251.648 154.613H254.824ZM263.18 173H260.414V154.766H263.18V173ZM271.945 171.008C272.305 171.008 272.66 170.977 273.012 170.914C273.363 170.844 273.684 170.762 273.973 170.668V172.754C273.668 172.887 273.273 173 272.789 173.094C272.305 173.188 271.801 173.234 271.277 173.234C270.543 173.234 269.883 173.113 269.297 172.871C268.711 172.621 268.246 172.195 267.902 171.594C267.559 170.992 267.387 170.16 267.387 169.098V162.125H265.617V160.895L267.516 159.922L268.418 157.145H270.152V160.027H273.867V162.125H270.152V169.062C270.152 169.719 270.316 170.207 270.645 170.527C270.973 170.848 271.406 171.008 271.945 171.008ZM279.363 160.027V173H276.609V160.027H279.363ZM278.004 155.059C278.426 155.059 278.789 155.172 279.094 155.398C279.406 155.625 279.562 156.016 279.562 156.57C279.562 157.117 279.406 157.508 279.094 157.742C278.789 157.969 278.426 158.082 278.004 158.082C277.566 158.082 277.195 157.969 276.891 157.742C276.594 157.508 276.445 157.117 276.445 156.57C276.445 156.016 276.594 155.625 276.891 155.398C277.195 155.172 277.566 155.059 278.004 155.059ZM297.973 159.781C299.426 159.781 300.52 160.156 301.254 160.906C301.996 161.656 302.367 162.859 302.367 164.516V173H299.613V165.008C299.613 164.023 299.422 163.281 299.039 162.781C298.656 162.281 298.074 162.031 297.293 162.031C296.199 162.031 295.41 162.383 294.926 163.086C294.449 163.781 294.211 164.793 294.211 166.121V173H291.457V165.008C291.457 164.352 291.371 163.805 291.199 163.367C291.035 162.922 290.781 162.59 290.438 162.371C290.094 162.145 289.66 162.031 289.137 162.031C288.379 162.031 287.773 162.203 287.32 162.547C286.875 162.891 286.555 163.398 286.359 164.07C286.164 164.734 286.066 165.551 286.066 166.52V173H283.312V160.027H285.457L285.844 161.773H285.996C286.262 161.32 286.59 160.949 286.98 160.66C287.379 160.363 287.82 160.145 288.305 160.004C288.789 159.855 289.293 159.781 289.816 159.781C290.785 159.781 291.602 159.953 292.266 160.297C292.93 160.633 293.426 161.148 293.754 161.844H293.965C294.371 161.141 294.938 160.621 295.664 160.285C296.391 159.949 297.16 159.781 297.973 159.781ZM317.695 166.484C317.695 167.562 317.555 168.52 317.273 169.355C316.992 170.191 316.582 170.898 316.043 171.477C315.504 172.047 314.855 172.484 314.098 172.789C313.34 173.086 312.484 173.234 311.531 173.234C310.641 173.234 309.824 173.086 309.082 172.789C308.34 172.484 307.695 172.047 307.148 171.477C306.609 170.898 306.191 170.191 305.895 169.355C305.598 168.52 305.449 167.562 305.449 166.484C305.449 165.055 305.695 163.844 306.188 162.852C306.688 161.852 307.398 161.09 308.32 160.566C309.242 160.043 310.34 159.781 311.613 159.781C312.809 159.781 313.863 160.043 314.777 160.566C315.691 161.09 316.406 161.852 316.922 162.852C317.438 163.852 317.695 165.062 317.695 166.484ZM308.285 166.484C308.285 167.43 308.398 168.238 308.625 168.91C308.859 169.582 309.219 170.098 309.703 170.457C310.188 170.809 310.812 170.984 311.578 170.984C312.344 170.984 312.969 170.809 313.453 170.457C313.938 170.098 314.293 169.582 314.52 168.91C314.746 168.238 314.859 167.43 314.859 166.484C314.859 165.539 314.746 164.738 314.52 164.082C314.293 163.418 313.938 162.914 313.453 162.57C312.969 162.219 312.34 162.043 311.566 162.043C310.426 162.043 309.594 162.426 309.07 163.191C308.547 163.957 308.285 165.055 308.285 166.484ZM341.754 159.781C343.207 159.781 344.301 160.156 345.035 160.906C345.777 161.656 346.148 162.859 346.148 164.516V173H343.395V165.008C343.395 164.023 343.203 163.281 342.82 162.781C342.438 162.281 341.855 162.031 341.074 162.031C339.98 162.031 339.191 162.383 338.707 163.086C338.23 163.781 337.992 164.793 337.992 166.121V173H335.238V165.008C335.238 164.352 335.152 163.805 334.98 163.367C334.816 162.922 334.562 162.59 334.219 162.371C333.875 162.145 333.441 162.031 332.918 162.031C332.16 162.031 331.555 162.203 331.102 162.547C330.656 162.891 330.336 163.398 330.141 164.07C329.945 164.734 329.848 165.551 329.848 166.52V173H327.094V160.027H329.238L329.625 161.773H329.777C330.043 161.32 330.371 160.949 330.762 160.66C331.16 160.363 331.602 160.145 332.086 160.004C332.57 159.855 333.074 159.781 333.598 159.781C334.566 159.781 335.383 159.953 336.047 160.297C336.711 160.633 337.207 161.148 337.535 161.844H337.746C338.152 161.141 338.719 160.621 339.445 160.285C340.172 159.949 340.941 159.781 341.754 159.781ZM355.16 159.781C356.316 159.781 357.309 160.02 358.137 160.496C358.965 160.973 359.602 161.648 360.047 162.523C360.492 163.398 360.715 164.445 360.715 165.664V167.141H352.055C352.086 168.398 352.422 169.367 353.062 170.047C353.711 170.727 354.617 171.066 355.781 171.066C356.609 171.066 357.352 170.988 358.008 170.832C358.672 170.668 359.355 170.43 360.059 170.117V172.355C359.41 172.66 358.75 172.883 358.078 173.023C357.406 173.164 356.602 173.234 355.664 173.234C354.391 173.234 353.27 172.988 352.301 172.496C351.34 171.996 350.586 171.254 350.039 170.27C349.5 169.285 349.23 168.062 349.23 166.602C349.23 165.148 349.477 163.914 349.969 162.898C350.461 161.883 351.152 161.109 352.043 160.578C352.934 160.047 353.973 159.781 355.16 159.781ZM355.16 161.855C354.293 161.855 353.59 162.137 353.051 162.699C352.52 163.262 352.207 164.086 352.113 165.172H358.02C358.012 164.523 357.902 163.949 357.691 163.449C357.488 162.949 357.176 162.559 356.754 162.277C356.34 161.996 355.809 161.855 355.16 161.855ZM356.555 154.613C356.766 154.973 357.047 155.371 357.398 155.809C357.758 156.246 358.129 156.676 358.512 157.098C358.902 157.512 359.246 157.867 359.543 158.164V158.457H357.668C357.246 158.191 356.797 157.875 356.32 157.508C355.852 157.133 355.41 156.73 354.996 156.301C354.574 156.73 354.133 157.129 353.672 157.496C353.219 157.863 352.785 158.184 352.371 158.457H350.508V158.164C350.805 157.859 351.145 157.5 351.527 157.086C351.91 156.672 352.277 156.246 352.629 155.809C352.98 155.371 353.262 154.973 353.473 154.613H356.555ZM372.539 169.297C372.539 170.148 372.332 170.867 371.918 171.453C371.504 172.039 370.898 172.484 370.102 172.789C369.312 173.086 368.344 173.234 367.195 173.234C366.289 173.234 365.508 173.168 364.852 173.035C364.203 172.91 363.59 172.715 363.012 172.449V170.07C363.629 170.359 364.32 170.609 365.086 170.82C365.859 171.031 366.59 171.137 367.277 171.137C368.184 171.137 368.836 170.996 369.234 170.715C369.633 170.426 369.832 170.043 369.832 169.566C369.832 169.285 369.75 169.035 369.586 168.816C369.43 168.59 369.133 168.359 368.695 168.125C368.266 167.883 367.633 167.594 366.797 167.258C365.977 166.93 365.285 166.602 364.723 166.273C364.16 165.945 363.734 165.551 363.445 165.09C363.156 164.621 363.012 164.023 363.012 163.297C363.012 162.148 363.465 161.277 364.371 160.684C365.285 160.082 366.492 159.781 367.992 159.781C368.789 159.781 369.539 159.863 370.242 160.027C370.953 160.184 371.648 160.414 372.328 160.719L371.461 162.793C370.875 162.535 370.285 162.324 369.691 162.16C369.105 161.988 368.508 161.902 367.898 161.902C367.188 161.902 366.645 162.012 366.27 162.23C365.902 162.449 365.719 162.762 365.719 163.168C365.719 163.473 365.809 163.73 365.988 163.941C366.168 164.152 366.477 164.363 366.914 164.574C367.359 164.785 367.977 165.047 368.766 165.359C369.539 165.656 370.207 165.969 370.77 166.297C371.34 166.617 371.777 167.012 372.082 167.48C372.387 167.949 372.539 168.555 372.539 169.297Z" fill="#00224F"/>
<path d="M187.291 93.2324C187.291 91.0996 187.444 88.9922 187.748 86.9102C188.07 84.8112 188.62 82.8392 189.399 80.9941C190.177 79.1322 191.269 77.4902 192.674 76.0684C194.079 74.6296 195.865 73.5039 198.032 72.6914C200.198 71.862 202.822 71.4473 205.903 71.4473C206.631 71.4473 207.477 71.4811 208.442 71.5488C209.424 71.5996 210.236 71.6927 210.879 71.8281V78.0996C210.202 77.9473 209.474 77.8288 208.696 77.7441C207.934 77.6426 207.172 77.5918 206.411 77.5918C203.33 77.5918 200.943 78.0827 199.25 79.0645C197.575 80.0462 196.39 81.4089 195.696 83.1523C195.019 84.8789 194.621 86.8932 194.502 89.1953H194.832C195.306 88.3659 195.899 87.6296 196.61 86.9863C197.338 86.3431 198.218 85.8353 199.25 85.4629C200.283 85.0736 201.493 84.8789 202.881 84.8789C205.048 84.8789 206.927 85.3444 208.518 86.2754C210.109 87.1895 211.336 88.5182 212.2 90.2617C213.063 92.0052 213.495 94.1296 213.495 96.6348C213.495 99.3092 212.978 101.611 211.946 103.541C210.913 105.471 209.449 106.952 207.553 107.984C205.674 109 203.44 109.508 200.85 109.508C198.954 109.508 197.185 109.186 195.543 108.543C193.901 107.883 192.463 106.884 191.227 105.547C189.991 104.21 189.026 102.525 188.332 100.494C187.638 98.446 187.291 96.0254 187.291 93.2324ZM200.698 103.236C202.238 103.236 203.491 102.712 204.455 101.662C205.42 100.613 205.903 98.9707 205.903 96.7363C205.903 94.9251 205.48 93.5033 204.633 92.4707C203.804 91.4212 202.543 90.8965 200.85 90.8965C199.699 90.8965 198.683 91.1589 197.803 91.6836C196.94 92.1914 196.271 92.8431 195.797 93.6387C195.323 94.4173 195.086 95.2214 195.086 96.0508C195.086 96.9141 195.205 97.7689 195.442 98.6152C195.679 99.4616 196.034 100.232 196.508 100.926C196.982 101.62 197.566 102.178 198.26 102.602C198.971 103.025 199.784 103.236 200.698 103.236ZM252.205 80.1816C252.205 81.8913 251.85 83.3724 251.139 84.625C250.428 85.8776 249.463 86.9017 248.244 87.6973C247.042 88.4928 245.688 89.0768 244.182 89.4492V89.6016C247.161 89.974 249.421 90.888 250.961 92.3438C252.518 93.7995 253.297 95.7461 253.297 98.1836C253.297 100.35 252.764 102.288 251.697 103.998C250.648 105.708 249.023 107.053 246.822 108.035C244.622 109.017 241.786 109.508 238.316 109.508C236.268 109.508 234.355 109.339 232.578 109C230.818 108.678 229.159 108.179 227.602 107.502V100.824C229.193 101.637 230.86 102.255 232.604 102.678C234.347 103.084 235.972 103.287 237.479 103.287C240.288 103.287 242.252 102.805 243.369 101.84C244.503 100.858 245.07 99.487 245.07 97.7266C245.07 96.694 244.808 95.8223 244.283 95.1113C243.758 94.4004 242.844 93.8587 241.541 93.4863C240.255 93.1139 238.452 92.9277 236.133 92.9277H233.314V86.9102H236.184C238.469 86.9102 240.204 86.6986 241.389 86.2754C242.59 85.8353 243.403 85.2428 243.826 84.498C244.266 83.7363 244.486 82.873 244.486 81.9082C244.486 80.5879 244.08 79.5553 243.268 78.8105C242.455 78.0658 241.101 77.6934 239.205 77.6934C238.02 77.6934 236.937 77.8457 235.955 78.1504C234.99 78.4382 234.118 78.7936 233.34 79.2168C232.561 79.623 231.876 80.0208 231.283 80.4102L227.652 75.002C229.108 73.9525 230.809 73.0807 232.756 72.3867C234.719 71.6927 237.055 71.3457 239.764 71.3457C243.589 71.3457 246.619 72.1159 248.854 73.6562C251.088 75.1966 252.205 77.3717 252.205 80.1816ZM281.369 85.2852C283.637 85.2852 285.651 85.7168 287.412 86.5801C289.189 87.4434 290.586 88.7129 291.601 90.3887C292.617 92.0645 293.125 94.1296 293.125 96.584C293.125 99.2585 292.566 101.569 291.449 103.516C290.349 105.445 288.698 106.926 286.498 107.959C284.314 108.992 281.589 109.508 278.322 109.508C276.375 109.508 274.539 109.339 272.812 109C271.102 108.678 269.604 108.179 268.318 107.502V100.723C269.604 101.4 271.145 101.975 272.939 102.449C274.75 102.906 276.451 103.135 278.043 103.135C279.6 103.135 280.912 102.932 281.978 102.525C283.045 102.102 283.849 101.459 284.39 100.596C284.949 99.7155 285.228 98.5983 285.228 97.2441C285.228 95.4329 284.619 94.0449 283.4 93.0801C282.181 92.1152 280.311 91.6328 277.789 91.6328C276.824 91.6328 275.817 91.7259 274.767 91.9121C273.735 92.0983 272.871 92.2845 272.177 92.4707L269.054 90.7949L270.451 71.8789H290.586V78.5312H277.332L276.646 85.8184C277.222 85.6999 277.848 85.5814 278.525 85.4629C279.202 85.3444 280.15 85.2852 281.369 85.2852Z" fill="#00224F"/>
<defs>
<clipPath id="clip0_2014_1588">
<rect width="315" height="230" fill="white" transform="translate(438 14)"/>
</clipPath>
</defs>
</svg>
