<svg width="413" height="245" viewBox="0 0 413 245" fill="none" xmlns="http://www.w3.org/2000/svg">
<rect width="412" height="244" rx="5" fill="#FFAE00" fill-opacity="0.2"/>
<rect x="0.5" y="0.5" width="411" height="243" rx="4.5" stroke="#00224F" stroke-opacity="0.2"/>
<path fill-rule="evenodd" clip-rule="evenodd" d="M0 0L23.0592 24.4C45.7742 48.8 91.8925 97.6 137.667 105.733C183.441 113.867 229.559 81.3333 275.333 97.6C321.108 113.867 367.226 178.933 389.941 211.467L413 244H389.941C367.226 244 321.108 244 275.333 244C229.559 244 183.441 244 137.667 244C91.8925 244 45.7742 244 23.0592 244H0V0Z" fill="#FF93C5" fill-opacity="0.5"/>
<path fill-rule="evenodd" clip-rule="evenodd" d="M0 126.99L17.2335 121.996C34.4671 117.358 68.9341 107.369 103.401 112.364C137.566 117.358 172.033 136.622 206.5 139.119C240.967 141.616 275.434 126.99 309.901 119.855C344.066 112.364 378.533 112.364 395.766 112.364H413V244H395.766C378.533 244 344.066 244 309.901 244C275.434 244 240.967 244 206.5 244C172.033 244 137.566 244 103.401 244C68.9341 244 34.4671 244 17.2335 244H0V126.99Z" fill="#1EB4FF" fill-opacity="0.3"/>
<path d="M57.7578 136.867C59.2344 136.867 60.4531 137.047 61.4141 137.406C62.3828 137.766 63.1016 138.312 63.5703 139.047C64.0469 139.781 64.2852 140.715 64.2852 141.848C64.2852 142.691 64.1289 143.41 63.8164 144.004C63.5039 144.598 63.0938 145.09 62.5859 145.48C62.0781 145.871 61.5352 146.184 60.957 146.418L65.8203 154H62.6445L58.5078 147.133H55.7539V154H52.9414V136.867H57.7578ZM57.5703 139.211H55.7539V144.812H57.6992C59.0039 144.812 59.9492 144.57 60.5352 144.086C61.1289 143.602 61.4258 142.887 61.4258 141.941C61.4258 140.949 61.1094 140.246 60.4766 139.832C59.8516 139.418 58.8828 139.211 57.5703 139.211ZM73.1562 140.781C74.3125 140.781 75.3047 141.02 76.1328 141.496C76.9609 141.973 77.5977 142.648 78.043 143.523C78.4883 144.398 78.7109 145.445 78.7109 146.664V148.141H70.0508C70.082 149.398 70.418 150.367 71.0586 151.047C71.707 151.727 72.6133 152.066 73.7773 152.066C74.6055 152.066 75.3477 151.988 76.0039 151.832C76.668 151.668 77.3516 151.43 78.0547 151.117V153.355C77.4062 153.66 76.7461 153.883 76.0742 154.023C75.4023 154.164 74.5977 154.234 73.6602 154.234C72.3867 154.234 71.2656 153.988 70.2969 153.496C69.3359 152.996 68.582 152.254 68.0352 151.27C67.4961 150.285 67.2266 149.062 67.2266 147.602C67.2266 146.148 67.4727 144.914 67.9648 143.898C68.457 142.883 69.1484 142.109 70.0391 141.578C70.9297 141.047 71.9688 140.781 73.1562 140.781ZM73.1562 142.855C72.2891 142.855 71.5859 143.137 71.0469 143.699C70.5156 144.262 70.2031 145.086 70.1094 146.172H76.0156C76.0078 145.523 75.8984 144.949 75.6875 144.449C75.4844 143.949 75.1719 143.559 74.75 143.277C74.3359 142.996 73.8047 142.855 73.1562 142.855ZM90.5352 150.297C90.5352 151.148 90.3281 151.867 89.9141 152.453C89.5 153.039 88.8945 153.484 88.0977 153.789C87.3086 154.086 86.3398 154.234 85.1914 154.234C84.2852 154.234 83.5039 154.168 82.8477 154.035C82.1992 153.91 81.5859 153.715 81.0078 153.449V151.07C81.625 151.359 82.3164 151.609 83.082 151.82C83.8555 152.031 84.5859 152.137 85.2734 152.137C86.1797 152.137 86.832 151.996 87.2305 151.715C87.6289 151.426 87.8281 151.043 87.8281 150.566C87.8281 150.285 87.7461 150.035 87.582 149.816C87.4258 149.59 87.1289 149.359 86.6914 149.125C86.2617 148.883 85.6289 148.594 84.793 148.258C83.9727 147.93 83.2812 147.602 82.7188 147.273C82.1562 146.945 81.7305 146.551 81.4414 146.09C81.1523 145.621 81.0078 145.023 81.0078 144.297C81.0078 143.148 81.4609 142.277 82.3672 141.684C83.2812 141.082 84.4883 140.781 85.9883 140.781C86.7852 140.781 87.5352 140.863 88.2383 141.027C88.9492 141.184 89.6445 141.414 90.3242 141.719L89.457 143.793C88.8711 143.535 88.2812 143.324 87.6875 143.16C87.1016 142.988 86.5039 142.902 85.8945 142.902C85.1836 142.902 84.6406 143.012 84.2656 143.23C83.8984 143.449 83.7148 143.762 83.7148 144.168C83.7148 144.473 83.8047 144.73 83.9844 144.941C84.1641 145.152 84.4727 145.363 84.9102 145.574C85.3555 145.785 85.9727 146.047 86.7617 146.359C87.5352 146.656 88.2031 146.969 88.7656 147.297C89.3359 147.617 89.7734 148.012 90.0781 148.48C90.3828 148.949 90.5352 149.555 90.5352 150.297ZM98.6797 140.781C99.8359 140.781 100.828 141.02 101.656 141.496C102.484 141.973 103.121 142.648 103.566 143.523C104.012 144.398 104.234 145.445 104.234 146.664V148.141H95.5742C95.6055 149.398 95.9414 150.367 96.582 151.047C97.2305 151.727 98.1367 152.066 99.3008 152.066C100.129 152.066 100.871 151.988 101.527 151.832C102.191 151.668 102.875 151.43 103.578 151.117V153.355C102.93 153.66 102.27 153.883 101.598 154.023C100.926 154.164 100.121 154.234 99.1836 154.234C97.9102 154.234 96.7891 153.988 95.8203 153.496C94.8594 152.996 94.1055 152.254 93.5586 151.27C93.0195 150.285 92.75 149.062 92.75 147.602C92.75 146.148 92.9961 144.914 93.4883 143.898C93.9805 142.883 94.6719 142.109 95.5625 141.578C96.4531 141.047 97.4922 140.781 98.6797 140.781ZM98.6797 142.855C97.8125 142.855 97.1094 143.137 96.5703 143.699C96.0391 144.262 95.7266 145.086 95.6328 146.172H101.539C101.531 145.523 101.422 144.949 101.211 144.449C101.008 143.949 100.695 143.559 100.273 143.277C99.8594 142.996 99.3281 142.855 98.6797 142.855ZM113.914 140.781C114.133 140.781 114.371 140.793 114.629 140.816C114.887 140.84 115.109 140.871 115.297 140.91L115.039 143.488C114.875 143.441 114.672 143.406 114.43 143.383C114.195 143.359 113.984 143.348 113.797 143.348C113.305 143.348 112.836 143.43 112.391 143.594C111.945 143.75 111.551 143.992 111.207 144.32C110.863 144.641 110.594 145.043 110.398 145.527C110.203 146.012 110.105 146.574 110.105 147.215V154H107.34V141.027H109.496L109.871 143.312H110C110.258 142.852 110.578 142.43 110.961 142.047C111.344 141.664 111.781 141.359 112.273 141.133C112.773 140.898 113.32 140.781 113.914 140.781ZM120.664 154L115.73 141.027H118.648L121.32 148.645C121.492 149.129 121.648 149.652 121.789 150.215C121.93 150.777 122.027 151.25 122.082 151.633H122.176C122.23 151.234 122.336 150.758 122.492 150.203C122.648 149.641 122.809 149.121 122.973 148.645L125.645 141.027H128.551L123.617 154H120.664ZM135.605 140.781C137.246 140.781 138.484 141.145 139.32 141.871C140.164 142.598 140.586 143.73 140.586 145.27V154H138.629L138.102 152.16H138.008C137.641 152.629 137.262 153.016 136.871 153.32C136.48 153.625 136.027 153.852 135.512 154C135.004 154.156 134.383 154.234 133.648 154.234C132.875 154.234 132.184 154.094 131.574 153.812C130.965 153.523 130.484 153.086 130.133 152.5C129.781 151.914 129.605 151.172 129.605 150.273C129.605 148.938 130.102 147.934 131.094 147.262C132.094 146.59 133.602 146.219 135.617 146.148L137.867 146.066V145.387C137.867 144.488 137.656 143.848 137.234 143.465C136.82 143.082 136.234 142.891 135.477 142.891C134.828 142.891 134.199 142.984 133.59 143.172C132.98 143.359 132.387 143.59 131.809 143.863L130.918 141.918C131.551 141.582 132.27 141.309 133.074 141.098C133.887 140.887 134.73 140.781 135.605 140.781ZM137.855 147.801L136.18 147.859C134.805 147.906 133.84 148.141 133.285 148.562C132.73 148.984 132.453 149.562 132.453 150.297C132.453 150.938 132.645 151.406 133.027 151.703C133.41 151.992 133.914 152.137 134.539 152.137C135.492 152.137 136.281 151.867 136.906 151.328C137.539 150.781 137.855 149.98 137.855 148.926V147.801ZM153.16 150.297C153.16 151.148 152.953 151.867 152.539 152.453C152.125 153.039 151.52 153.484 150.723 153.789C149.934 154.086 148.965 154.234 147.816 154.234C146.91 154.234 146.129 154.168 145.473 154.035C144.824 153.91 144.211 153.715 143.633 153.449V151.07C144.25 151.359 144.941 151.609 145.707 151.82C146.48 152.031 147.211 152.137 147.898 152.137C148.805 152.137 149.457 151.996 149.855 151.715C150.254 151.426 150.453 151.043 150.453 150.566C150.453 150.285 150.371 150.035 150.207 149.816C150.051 149.59 149.754 149.359 149.316 149.125C148.887 148.883 148.254 148.594 147.418 148.258C146.598 147.93 145.906 147.602 145.344 147.273C144.781 146.945 144.355 146.551 144.066 146.09C143.777 145.621 143.633 145.023 143.633 144.297C143.633 143.148 144.086 142.277 144.992 141.684C145.906 141.082 147.113 140.781 148.613 140.781C149.41 140.781 150.16 140.863 150.863 141.027C151.574 141.184 152.27 141.414 152.949 141.719L152.082 143.793C151.496 143.535 150.906 143.324 150.312 143.16C149.727 142.988 149.129 142.902 148.52 142.902C147.809 142.902 147.266 143.012 146.891 143.23C146.523 143.449 146.34 143.762 146.34 144.168C146.34 144.473 146.43 144.73 146.609 144.941C146.789 145.152 147.098 145.363 147.535 145.574C147.98 145.785 148.598 146.047 149.387 146.359C150.16 146.656 150.828 146.969 151.391 147.297C151.961 147.617 152.398 148.012 152.703 148.48C153.008 148.949 153.16 149.555 153.16 150.297ZM169.133 140.781C170.594 140.781 171.73 141.16 172.543 141.918C173.363 142.668 173.773 143.875 173.773 145.539V154H171.02V146.055C171.02 145.047 170.812 144.293 170.398 143.793C169.984 143.285 169.344 143.031 168.477 143.031C167.219 143.031 166.344 143.418 165.852 144.191C165.367 144.965 165.125 146.086 165.125 147.555V154H162.371V141.027H164.516L164.902 142.785H165.055C165.336 142.332 165.684 141.961 166.098 141.672C166.52 141.375 166.988 141.152 167.504 141.004C168.027 140.855 168.57 140.781 169.133 140.781ZM189.113 147.484C189.113 148.562 188.973 149.52 188.691 150.355C188.41 151.191 188 151.898 187.461 152.477C186.922 153.047 186.273 153.484 185.516 153.789C184.758 154.086 183.902 154.234 182.949 154.234C182.059 154.234 181.242 154.086 180.5 153.789C179.758 153.484 179.113 153.047 178.566 152.477C178.027 151.898 177.609 151.191 177.312 150.355C177.016 149.52 176.867 148.562 176.867 147.484C176.867 146.055 177.113 144.844 177.605 143.852C178.105 142.852 178.816 142.09 179.738 141.566C180.66 141.043 181.758 140.781 183.031 140.781C184.227 140.781 185.281 141.043 186.195 141.566C187.109 142.09 187.824 142.852 188.34 143.852C188.855 144.852 189.113 146.062 189.113 147.484ZM179.703 147.484C179.703 148.43 179.816 149.238 180.043 149.91C180.277 150.582 180.637 151.098 181.121 151.457C181.605 151.809 182.23 151.984 182.996 151.984C183.762 151.984 184.387 151.809 184.871 151.457C185.355 151.098 185.711 150.582 185.938 149.91C186.164 149.238 186.277 148.43 186.277 147.484C186.277 146.539 186.164 145.738 185.938 145.082C185.711 144.418 185.355 143.914 184.871 143.57C184.387 143.219 183.758 143.043 182.984 143.043C181.844 143.043 181.012 143.426 180.488 144.191C179.965 144.957 179.703 146.055 179.703 147.484ZM68.5977 174.027V187H66.4297L66.0547 185.254H65.9023C65.6289 185.699 65.2812 186.07 64.8594 186.367C64.4375 186.656 63.9688 186.871 63.4531 187.012C62.9375 187.16 62.3945 187.234 61.8242 187.234C60.8477 187.234 60.0117 187.07 59.3164 186.742C58.6289 186.406 58.1016 185.891 57.7344 185.195C57.3672 184.5 57.1836 183.602 57.1836 182.5V174.027H59.9492V181.984C59.9492 182.992 60.1523 183.746 60.5586 184.246C60.9727 184.746 61.6133 184.996 62.4805 184.996C63.3164 184.996 63.9805 184.824 64.4727 184.48C64.9648 184.137 65.3125 183.629 65.5156 182.957C65.7266 182.285 65.832 181.461 65.832 180.484V174.027H68.5977ZM66.957 168.613V168.848C66.7695 169.074 66.5156 169.348 66.1953 169.668C65.875 169.98 65.5273 170.312 65.1523 170.664C64.7773 171.008 64.4062 171.34 64.0391 171.66C63.6719 171.973 63.3398 172.238 63.043 172.457H61.2031V172.152C61.4609 171.855 61.7461 171.5 62.0586 171.086C62.3789 170.672 62.6914 170.246 62.9961 169.809C63.3086 169.371 63.5703 168.973 63.7812 168.613H66.957ZM75.3125 187H72.5469V168.766H75.3125V187ZM84.0781 185.008C84.4375 185.008 84.793 184.977 85.1445 184.914C85.4961 184.844 85.8164 184.762 86.1055 184.668V186.754C85.8008 186.887 85.4062 187 84.9219 187.094C84.4375 187.188 83.9336 187.234 83.4102 187.234C82.6758 187.234 82.0156 187.113 81.4297 186.871C80.8438 186.621 80.3789 186.195 80.0352 185.594C79.6914 184.992 79.5195 184.16 79.5195 183.098V176.125H77.75V174.895L79.6484 173.922L80.5508 171.145H82.2852V174.027H86V176.125H82.2852V183.062C82.2852 183.719 82.4492 184.207 82.7773 184.527C83.1055 184.848 83.5391 185.008 84.0781 185.008ZM91.4961 174.027V187H88.7422V174.027H91.4961ZM90.1367 169.059C90.5586 169.059 90.9219 169.172 91.2266 169.398C91.5391 169.625 91.6953 170.016 91.6953 170.57C91.6953 171.117 91.5391 171.508 91.2266 171.742C90.9219 171.969 90.5586 172.082 90.1367 172.082C89.6992 172.082 89.3281 171.969 89.0234 171.742C88.7266 171.508 88.5781 171.117 88.5781 170.57C88.5781 170.016 88.7266 169.625 89.0234 169.398C89.3281 169.172 89.6992 169.059 90.1367 169.059ZM110.105 173.781C111.559 173.781 112.652 174.156 113.387 174.906C114.129 175.656 114.5 176.859 114.5 178.516V187H111.746V179.008C111.746 178.023 111.555 177.281 111.172 176.781C110.789 176.281 110.207 176.031 109.426 176.031C108.332 176.031 107.543 176.383 107.059 177.086C106.582 177.781 106.344 178.793 106.344 180.121V187H103.59V179.008C103.59 178.352 103.504 177.805 103.332 177.367C103.168 176.922 102.914 176.59 102.57 176.371C102.227 176.145 101.793 176.031 101.27 176.031C100.512 176.031 99.9062 176.203 99.4531 176.547C99.0078 176.891 98.6875 177.398 98.4922 178.07C98.2969 178.734 98.1992 179.551 98.1992 180.52V187H95.4453V174.027H97.5898L97.9766 175.773H98.1289C98.3945 175.32 98.7227 174.949 99.1133 174.66C99.5117 174.363 99.9531 174.145 100.438 174.004C100.922 173.855 101.426 173.781 101.949 173.781C102.918 173.781 103.734 173.953 104.398 174.297C105.062 174.633 105.559 175.148 105.887 175.844H106.098C106.504 175.141 107.07 174.621 107.797 174.285C108.523 173.949 109.293 173.781 110.105 173.781ZM129.828 180.484C129.828 181.562 129.688 182.52 129.406 183.355C129.125 184.191 128.715 184.898 128.176 185.477C127.637 186.047 126.988 186.484 126.23 186.789C125.473 187.086 124.617 187.234 123.664 187.234C122.773 187.234 121.957 187.086 121.215 186.789C120.473 186.484 119.828 186.047 119.281 185.477C118.742 184.898 118.324 184.191 118.027 183.355C117.73 182.52 117.582 181.562 117.582 180.484C117.582 179.055 117.828 177.844 118.32 176.852C118.82 175.852 119.531 175.09 120.453 174.566C121.375 174.043 122.473 173.781 123.746 173.781C124.941 173.781 125.996 174.043 126.91 174.566C127.824 175.09 128.539 175.852 129.055 176.852C129.57 177.852 129.828 179.062 129.828 180.484ZM120.418 180.484C120.418 181.43 120.531 182.238 120.758 182.91C120.992 183.582 121.352 184.098 121.836 184.457C122.32 184.809 122.945 184.984 123.711 184.984C124.477 184.984 125.102 184.809 125.586 184.457C126.07 184.098 126.426 183.582 126.652 182.91C126.879 182.238 126.992 181.43 126.992 180.484C126.992 179.539 126.879 178.738 126.652 178.082C126.426 177.418 126.07 176.914 125.586 176.57C125.102 176.219 124.473 176.043 123.699 176.043C122.559 176.043 121.727 176.426 121.203 177.191C120.68 177.957 120.418 179.055 120.418 180.484ZM153.887 173.781C155.34 173.781 156.434 174.156 157.168 174.906C157.91 175.656 158.281 176.859 158.281 178.516V187H155.527V179.008C155.527 178.023 155.336 177.281 154.953 176.781C154.57 176.281 153.988 176.031 153.207 176.031C152.113 176.031 151.324 176.383 150.84 177.086C150.363 177.781 150.125 178.793 150.125 180.121V187H147.371V179.008C147.371 178.352 147.285 177.805 147.113 177.367C146.949 176.922 146.695 176.59 146.352 176.371C146.008 176.145 145.574 176.031 145.051 176.031C144.293 176.031 143.688 176.203 143.234 176.547C142.789 176.891 142.469 177.398 142.273 178.07C142.078 178.734 141.98 179.551 141.98 180.52V187H139.227V174.027H141.371L141.758 175.773H141.91C142.176 175.32 142.504 174.949 142.895 174.66C143.293 174.363 143.734 174.145 144.219 174.004C144.703 173.855 145.207 173.781 145.73 173.781C146.699 173.781 147.516 173.953 148.18 174.297C148.844 174.633 149.34 175.148 149.668 175.844H149.879C150.285 175.141 150.852 174.621 151.578 174.285C152.305 173.949 153.074 173.781 153.887 173.781ZM167.293 173.781C168.449 173.781 169.441 174.02 170.27 174.496C171.098 174.973 171.734 175.648 172.18 176.523C172.625 177.398 172.848 178.445 172.848 179.664V181.141H164.188C164.219 182.398 164.555 183.367 165.195 184.047C165.844 184.727 166.75 185.066 167.914 185.066C168.742 185.066 169.484 184.988 170.141 184.832C170.805 184.668 171.488 184.43 172.191 184.117V186.355C171.543 186.66 170.883 186.883 170.211 187.023C169.539 187.164 168.734 187.234 167.797 187.234C166.523 187.234 165.402 186.988 164.434 186.496C163.473 185.996 162.719 185.254 162.172 184.27C161.633 183.285 161.363 182.062 161.363 180.602C161.363 179.148 161.609 177.914 162.102 176.898C162.594 175.883 163.285 175.109 164.176 174.578C165.066 174.047 166.105 173.781 167.293 173.781ZM167.293 175.855C166.426 175.855 165.723 176.137 165.184 176.699C164.652 177.262 164.34 178.086 164.246 179.172H170.152C170.145 178.523 170.035 177.949 169.824 177.449C169.621 176.949 169.309 176.559 168.887 176.277C168.473 175.996 167.941 175.855 167.293 175.855ZM168.688 168.613C168.898 168.973 169.18 169.371 169.531 169.809C169.891 170.246 170.262 170.676 170.645 171.098C171.035 171.512 171.379 171.867 171.676 172.164V172.457H169.801C169.379 172.191 168.93 171.875 168.453 171.508C167.984 171.133 167.543 170.73 167.129 170.301C166.707 170.73 166.266 171.129 165.805 171.496C165.352 171.863 164.918 172.184 164.504 172.457H162.641V172.164C162.938 171.859 163.277 171.5 163.66 171.086C164.043 170.672 164.41 170.246 164.762 169.809C165.113 169.371 165.395 168.973 165.605 168.613H168.688ZM184.672 183.297C184.672 184.148 184.465 184.867 184.051 185.453C183.637 186.039 183.031 186.484 182.234 186.789C181.445 187.086 180.477 187.234 179.328 187.234C178.422 187.234 177.641 187.168 176.984 187.035C176.336 186.91 175.723 186.715 175.145 186.449V184.07C175.762 184.359 176.453 184.609 177.219 184.82C177.992 185.031 178.723 185.137 179.41 185.137C180.316 185.137 180.969 184.996 181.367 184.715C181.766 184.426 181.965 184.043 181.965 183.566C181.965 183.285 181.883 183.035 181.719 182.816C181.562 182.59 181.266 182.359 180.828 182.125C180.398 181.883 179.766 181.594 178.93 181.258C178.109 180.93 177.418 180.602 176.855 180.273C176.293 179.945 175.867 179.551 175.578 179.09C175.289 178.621 175.145 178.023 175.145 177.297C175.145 176.148 175.598 175.277 176.504 174.684C177.418 174.082 178.625 173.781 180.125 173.781C180.922 173.781 181.672 173.863 182.375 174.027C183.086 174.184 183.781 174.414 184.461 174.719L183.594 176.793C183.008 176.535 182.418 176.324 181.824 176.16C181.238 175.988 180.641 175.902 180.031 175.902C179.32 175.902 178.777 176.012 178.402 176.23C178.035 176.449 177.852 176.762 177.852 177.168C177.852 177.473 177.941 177.73 178.121 177.941C178.301 178.152 178.609 178.363 179.047 178.574C179.492 178.785 180.109 179.047 180.898 179.359C181.672 179.656 182.34 179.969 182.902 180.297C183.473 180.617 183.91 181.012 184.215 181.48C184.52 181.949 184.672 182.555 184.672 183.297Z" fill="#00224F"/>
<path d="M86.9437 112H79.098V90.5195C79.098 89.9271 79.1065 89.1992 79.1234 88.3359C79.1404 87.4557 79.1658 86.5586 79.1996 85.6445C79.2335 84.7135 79.2673 83.8757 79.3012 83.1309C79.115 83.3509 78.7341 83.7318 78.1586 84.2734C77.6 84.7982 77.0753 85.2721 76.5844 85.6953L72.3187 89.123L68.5355 84.4004L80.4945 74.8789H86.9437V112ZM111.385 112L125.324 81.4805H107.018V74.8789H133.652V79.8047L119.611 112H111.385ZM151.543 112L165.482 81.4805H147.175V74.8789H173.81V79.8047L159.769 112H151.543Z" fill="#00224F"/>
<path d="M262.847 114.631C260.19 115.04 257.562 116.823 256.54 118.898C256.044 119.98 255.839 121.003 255.693 123.254L255.547 126.177L249.562 126.323C243.139 126.498 242.963 126.557 240.16 128.282C238.321 129.422 236.832 131.263 235.577 133.923L234.817 135.531V181.569V227.608L235.577 229.245C236.657 231.554 238 233.308 239.431 234.36C240.423 235.091 240.686 235.471 240.832 236.406C241.328 239.855 244.715 242.662 248.423 242.662C251.08 242.662 254.175 240.586 255.255 238.043L255.81 236.815H272.044H288.306L289.153 238.482C289.825 239.768 290.409 240.44 291.722 241.346C293.358 242.486 293.474 242.515 295.839 242.515C298.204 242.515 298.321 242.486 299.985 241.317C301.27 240.44 301.883 239.738 302.525 238.482C303.197 237.166 303.489 236.815 304.044 236.815C304.686 236.815 304.744 236.932 304.744 238.277C304.744 240.06 305.562 241.814 306.642 242.311C309.533 243.626 312.044 241.58 312.044 237.897V236.815L337.825 236.874L363.577 236.962L363.722 238.92C363.898 241.317 364.686 242.311 366.584 242.574C369.095 242.895 370.467 241.609 370.73 238.715L370.876 236.962L373.212 236.757C378.438 236.318 381.795 233.951 383.314 229.654C383.664 228.689 383.722 224.48 383.722 205.392V182.3L382.876 180.137C382.175 178.442 381.708 177.74 380.511 176.717C379.664 176.015 378.35 175.138 377.562 174.788C376.16 174.145 375.839 174.115 365.153 174.028L354.146 173.94L354.029 171.222C353.854 167.042 352.394 164.586 349.036 162.803C347.839 162.131 347.635 162.131 337.445 162.131C327.255 162.131 327.051 162.131 325.854 162.803C323.985 163.797 322.584 165.142 321.766 166.778C321.153 167.977 320.978 168.825 320.861 171.105L320.715 173.969H315.08H309.416V155.817C309.416 140.617 309.358 137.372 308.978 135.735C308.131 132.082 305.795 129.071 302.467 127.434L300.511 126.469L294.642 126.382L288.774 126.265L288.628 123.605C288.394 119.425 287.051 117.115 283.839 115.508L281.854 114.485L273.095 114.426C268.248 114.397 263.635 114.485 262.847 114.631ZM282.555 118.518C284.423 119.512 285.182 121.091 285.182 124.043V126.323H272.044H258.905V124.745C258.905 121.792 259.226 120.506 260.19 119.542C261.825 117.905 262.029 117.875 272.073 117.846C281.153 117.846 281.328 117.846 282.555 118.518ZM246.642 159.003C246.642 187.795 246.642 188.205 247.226 188.731C247.693 189.14 247.985 189.198 248.744 188.994L249.708 188.702L249.854 159.354L250 129.977L274.876 129.889L299.781 129.831L301.124 130.474C302.817 131.263 304.365 132.812 305.153 134.508C305.766 135.794 305.766 136.203 305.854 154.852L305.941 173.882L302.35 174.028C298.321 174.203 297.27 174.525 294.934 176.308C292.949 177.828 291.693 180.02 291.314 182.797C291.109 184.142 291.022 193.203 291.022 206.912L291.051 228.865L290.146 230.151C289.62 230.823 289.007 231.846 288.803 232.372L288.394 233.308H272.073H255.752L255.431 232.343C255.255 231.817 254.555 230.765 253.854 230.005C250.817 226.643 245.912 226.643 242.671 230.034L241.153 231.612L240.54 230.911C240.19 230.531 239.46 229.391 238.963 228.338L238.029 226.438V181.715C238.029 132.666 237.912 136.086 239.81 133.163C241.036 131.322 243.489 129.86 245.416 129.831H246.642V159.003ZM347.372 165.668C348.131 165.96 348.949 166.662 349.591 167.48C350.555 168.737 350.584 168.883 350.584 171.368V173.969H337.416H324.248L324.365 171.251C324.452 168.825 324.54 168.445 325.27 167.48C325.737 166.895 326.642 166.135 327.314 165.814C328.482 165.229 329.036 165.2 337.358 165.2C344.832 165.2 346.379 165.258 347.372 165.668ZM365.474 191.449C365.474 203.872 365.533 205.772 365.941 206.357C366.496 207.175 367.606 207.205 368.394 206.415C368.949 205.86 368.978 205.451 368.978 191.478V177.126L372.131 177.243C375.46 177.36 376.628 177.769 378.555 179.377C380.394 180.926 380.365 180.488 380.365 205.451C380.365 227.754 380.365 228.105 379.752 229.508C379.109 230.998 377.941 232.022 375.927 232.869C374.963 233.249 370.525 233.308 337.445 233.308H300.044L298.525 232.577C296.744 231.758 295.898 231.028 295.197 229.712C294.701 228.835 294.671 227.169 294.671 205.392V182.008L295.46 180.634C296.277 179.26 297.591 178.266 299.46 177.594C300.306 177.302 307.197 177.214 333.007 177.185H365.474V191.449ZM250.642 231.554C251.868 232.285 252.482 233.542 252.482 235.237C252.482 236.465 252.336 236.728 251.197 237.868C250 239.095 249.854 239.154 248.277 239.154C246.759 239.154 246.525 239.066 245.416 238.043C244.394 237.078 244.219 236.728 244.102 235.471C243.956 233.629 244.657 232.168 246.058 231.495C247.431 230.794 249.474 230.823 250.642 231.554ZM293.62 233.191C294.701 234.331 296.744 235.646 298.175 236.143C299.693 236.64 299.781 237.02 298.73 238.102C297.095 239.709 294.584 239.622 292.832 237.897C291.606 236.669 291.255 234.798 292.014 233.366C292.598 232.255 292.715 232.226 293.62 233.191ZM308.832 238.102C308.832 239.446 308.365 240.118 307.927 239.417C307.635 238.949 307.577 237.283 307.868 237.02C308.423 236.435 308.832 236.874 308.832 238.102ZM367.664 238.306C367.664 239.242 367.547 239.592 367.226 239.592C366.759 239.592 366.467 238.014 366.759 237.195C367.109 236.318 367.664 237.02 367.664 238.306Z" fill="#00224F"/>
<path d="M246.934 198.494C246.759 198.845 246.642 201.592 246.642 205.392C246.642 209.192 246.759 211.94 246.934 212.291C247.284 212.934 248.919 213.08 249.503 212.495C250 211.998 250 198.786 249.503 198.289C248.919 197.705 247.284 197.851 246.934 198.494Z" fill="#00224F"/>
<path d="M365.97 216.295C365.533 216.763 365.474 217.64 365.474 222.522C365.474 228.865 365.649 229.508 367.226 229.508C368.832 229.508 368.978 228.865 368.978 222.463C368.978 217.289 368.919 216.705 368.452 216.266C367.751 215.623 366.554 215.652 365.97 216.295Z" fill="#00224F"/>
</svg>
